<svg xmlns="http://www.w3.org/2000/svg" xmlns:xlink="http://www.w3.org/1999/xlink" width="1920" zoomAndPan="magnify" viewBox="0 0 1440 809.999993" height="1080" preserveAspectRatio="xMidYMid meet" version="1.0"><defs><g/><clipPath id="d40cad718e"><path d="M 656.613281 199.015625 L 676.910156 199.015625 L 676.910156 672.570312 L 656.613281 672.570312 Z M 656.613281 199.015625 " clip-rule="nonzero"/></clipPath><clipPath id="8d7b964c58"><path d="M 158 162 L 266 162 L 266 313 L 158 313 Z M 158 162 " clip-rule="nonzero"/></clipPath><clipPath id="182f6777db"><path d="M 105.035156 222.644531 L 223.253906 137.914062 L 298.132812 242.386719 L 179.910156 327.121094 Z M 105.035156 222.644531 " clip-rule="nonzero"/></clipPath><clipPath id="42003c1866"><path d="M 105.035156 222.644531 L 223.253906 137.914062 L 298.132812 242.386719 L 179.910156 327.121094 Z M 105.035156 222.644531 " clip-rule="nonzero"/></clipPath><clipPath id="415831ac83"><path d="M 927 255.175781 L 1029 255.175781 L 1029 334 L 927 334 Z M 927 255.175781 " clip-rule="nonzero"/></clipPath><clipPath id="1a33bc324c"><path d="M 74 215.734375 L 467 215.734375 L 467 583 L 74 583 Z M 74 215.734375 " clip-rule="nonzero"/></clipPath><clipPath id="db9f695b23"><path d="M 254 415 L 596.953125 415 L 596.953125 655.464844 L 254 655.464844 Z M 254 415 " clip-rule="nonzero"/></clipPath></defs><g clip-path="url(#d40cad718e)"><path fill="#3abef9" d="M 656.675781 199.015625 L 656.675781 672.695312 L 677.269531 672.695312 L 677.269531 199.015625 Z M 656.675781 199.015625 " fill-opacity="1" fill-rule="nonzero"/></g><g fill="#3abef9" fill-opacity="1"><g transform="translate(737.319353, 332.249552)"><g><path d="M 22.265625 0 L 7.984375 0 L 7.984375 -71.359375 L 22.265625 -71.359375 Z M 22.265625 0 "/></g></g></g><g fill="#3abef9" fill-opacity="1"><g transform="translate(762.668682, 332.249552)"><g><path d="M 40.71875 -41.125 L 68.875 -72.46875 L 73.359375 -72.46875 L 73.359375 0 L 58.890625 0 L 58.984375 -39.828125 L 40.71875 -20.65625 L 22.453125 -39.828125 L 22.453125 0 L 7.984375 0 L 7.984375 -72.46875 L 12.578125 -72.46875 Z M 40.71875 -41.125 "/></g></g></g><g fill="#3abef9" fill-opacity="1"><g transform="translate(839.116893, 332.249552)"><g><path d="M 59.484375 -4.390625 C 56.753906 -2.859375 53.84375 -1.675781 50.75 -0.84375 C 47.65625 -0.0078125 44.410156 0.40625 41.015625 0.40625 C 35.160156 0.40625 29.988281 -0.59375 25.5 -2.59375 C 21.007812 -4.59375 17.234375 -7.269531 14.171875 -10.625 C 11.109375 -13.988281 8.796875 -17.78125 7.234375 -22 C 5.671875 -26.226562 4.851562 -30.601562 4.78125 -35.125 C 4.71875 -39.65625 5.398438 -44.050781 6.828125 -48.3125 C 8.265625 -52.570312 10.476562 -56.445312 13.46875 -59.9375 C 16.46875 -63.425781 20.257812 -66.253906 24.84375 -68.421875 C 29.4375 -70.585938 34.828125 -71.769531 41.015625 -71.96875 C 43.878906 -72.101562 46.492188 -71.96875 48.859375 -71.5625 C 51.222656 -71.164062 53.1875 -70.734375 54.75 -70.265625 C 56.3125 -69.796875 57.289062 -69.5 57.6875 -69.375 L 56 -54.890625 C 54.601562 -55.492188 52.707031 -56.109375 50.3125 -56.734375 C 47.914062 -57.367188 44.816406 -57.617188 41.015625 -57.484375 C 36.890625 -57.359375 33.378906 -56.460938 30.484375 -54.796875 C 27.597656 -53.128906 25.304688 -51 23.609375 -48.40625 C 21.910156 -45.8125 20.796875 -42.984375 20.265625 -39.921875 C 19.734375 -36.859375 19.765625 -33.796875 20.359375 -30.734375 C 20.960938 -27.679688 22.144531 -24.875 23.90625 -22.3125 C 25.664062 -19.75 27.976562 -17.703125 30.84375 -16.171875 C 33.707031 -14.640625 37.097656 -13.875 41.015625 -13.875 C 41.679688 -13.875 42.347656 -13.921875 43.015625 -14.015625 C 43.679688 -14.117188 44.347656 -14.203125 45.015625 -14.265625 L 45.015625 -35.734375 L 59.484375 -35.734375 Z M 59.484375 -4.390625 "/></g></g></g><g fill="#3abef9" fill-opacity="1"><g transform="translate(737.319353, 440.490916)"><g><path d="M 7.984375 0 L 7.984375 -71.46875 L 36.234375 -71.46875 C 40.492188 -71.46875 44.148438 -70.535156 47.203125 -68.671875 C 50.265625 -66.804688 52.609375 -64.242188 54.234375 -60.984375 C 55.867188 -57.722656 56.625 -54 56.5 -49.8125 C 56.425781 -47.144531 55.875 -44.515625 54.84375 -41.921875 C 53.8125 -39.328125 52.164062 -37.265625 49.90625 -35.734375 C 52.238281 -34.140625 54.050781 -32.0625 55.34375 -29.5 C 56.644531 -26.9375 57.296875 -24.253906 57.296875 -21.453125 C 57.296875 -17.460938 56.347656 -13.851562 54.453125 -10.625 C 52.554688 -7.40625 50.007812 -4.828125 46.8125 -2.890625 C 43.613281 -0.960938 40.085938 0 36.234375 0 Z M 22.359375 -57.1875 L 22.359375 -42.8125 L 35.03125 -42.8125 C 37.09375 -42.8125 38.707031 -43.523438 39.875 -44.953125 C 41.039062 -46.390625 41.625 -48.070312 41.625 -50 C 41.625 -52 41.039062 -53.695312 39.875 -55.09375 C 38.707031 -56.488281 37.09375 -57.1875 35.03125 -57.1875 Z M 22.359375 -28.546875 L 22.359375 -14.265625 L 35.03125 -14.265625 C 37.09375 -14.265625 38.804688 -14.960938 40.171875 -16.359375 C 41.535156 -17.765625 42.21875 -19.460938 42.21875 -21.453125 C 42.21875 -23.453125 41.535156 -25.132812 40.171875 -26.5 C 38.804688 -27.863281 37.09375 -28.546875 35.03125 -28.546875 Z M 22.359375 -28.546875 "/></g></g></g><g fill="#3abef9" fill-opacity="1"><g transform="translate(794.306072, 440.490916)"><g><path d="M 1.59375 0 L 31.640625 -73.96875 L 33.140625 -73.96875 L 63.1875 0 L 47.109375 0 L 44.21875 -7.6875 L 20.5625 -7.6875 L 17.765625 0 Z M 25.75 -21.0625 L 38.921875 -21.0625 L 32.4375 -39.625 Z M 25.75 -21.0625 "/></g></g></g><g fill="#3abef9" fill-opacity="1"><g transform="translate(854.486463, 440.490916)"><g><path d="M 53.40625 -54.796875 C 52.070312 -55.523438 50.457031 -56.222656 48.5625 -56.890625 C 46.664062 -57.554688 44.148438 -57.890625 41.015625 -57.890625 C 36.960938 -57.890625 33.503906 -57.109375 30.640625 -55.546875 C 27.773438 -53.984375 25.476562 -51.90625 23.75 -49.3125 C 22.019531 -46.71875 20.851562 -43.867188 20.25 -40.765625 C 19.65625 -37.671875 19.65625 -34.578125 20.25 -31.484375 C 20.851562 -28.390625 22.019531 -25.546875 23.75 -22.953125 C 25.476562 -20.359375 27.773438 -18.28125 30.640625 -16.71875 C 33.503906 -15.15625 36.960938 -14.375 41.015625 -14.375 C 44.148438 -14.375 46.894531 -14.738281 49.25 -15.46875 C 51.613281 -16.195312 53.460938 -16.894531 54.796875 -17.5625 L 56.6875 -2.796875 C 54.5 -1.929688 51.972656 -1.210938 49.109375 -0.640625 C 46.242188 -0.078125 43.546875 0.203125 41.015625 0.203125 C 34.960938 0.203125 29.671875 -0.8125 25.140625 -2.84375 C 20.617188 -4.875 16.84375 -7.617188 13.8125 -11.078125 C 10.789062 -14.535156 8.53125 -18.410156 7.03125 -22.703125 C 5.539062 -26.992188 4.796875 -31.4375 4.796875 -36.03125 C 4.796875 -40.625 5.539062 -45.066406 7.03125 -49.359375 C 8.53125 -53.648438 10.789062 -57.523438 13.8125 -60.984375 C 16.84375 -64.441406 20.617188 -67.1875 25.140625 -69.21875 C 29.671875 -71.25 34.960938 -72.265625 41.015625 -72.265625 C 46.210938 -72.265625 50.90625 -71.332031 55.09375 -69.46875 Z M 53.40625 -54.796875 "/></g></g></g><g fill="#3abef9" fill-opacity="1"><g transform="translate(909.576946, 440.490916)"><g><path d="M 7.984375 0 L 7.984375 -71.359375 L 22.265625 -71.359375 L 22.265625 -42.921875 L 40.21875 -71.359375 L 56.890625 -71.359375 L 33.734375 -36.125 L 58.890625 0 L 41.21875 0 L 22.265625 -27.953125 L 22.265625 0 Z M 7.984375 0 "/></g></g></g><g fill="#3abef9" fill-opacity="1"><g transform="translate(964.867018, 440.490916)"><g><path d="M 59.484375 -4.390625 C 56.753906 -2.859375 53.84375 -1.675781 50.75 -0.84375 C 47.65625 -0.0078125 44.410156 0.40625 41.015625 0.40625 C 35.160156 0.40625 29.988281 -0.59375 25.5 -2.59375 C 21.007812 -4.59375 17.234375 -7.269531 14.171875 -10.625 C 11.109375 -13.988281 8.796875 -17.78125 7.234375 -22 C 5.671875 -26.226562 4.851562 -30.601562 4.78125 -35.125 C 4.71875 -39.65625 5.398438 -44.050781 6.828125 -48.3125 C 8.265625 -52.570312 10.476562 -56.445312 13.46875 -59.9375 C 16.46875 -63.425781 20.257812 -66.253906 24.84375 -68.421875 C 29.4375 -70.585938 34.828125 -71.769531 41.015625 -71.96875 C 43.878906 -72.101562 46.492188 -71.96875 48.859375 -71.5625 C 51.222656 -71.164062 53.1875 -70.734375 54.75 -70.265625 C 56.3125 -69.796875 57.289062 -69.5 57.6875 -69.375 L 56 -54.890625 C 54.601562 -55.492188 52.707031 -56.109375 50.3125 -56.734375 C 47.914062 -57.367188 44.816406 -57.617188 41.015625 -57.484375 C 36.890625 -57.359375 33.378906 -56.460938 30.484375 -54.796875 C 27.597656 -53.128906 25.304688 -51 23.609375 -48.40625 C 21.910156 -45.8125 20.796875 -42.984375 20.265625 -39.921875 C 19.734375 -36.859375 19.765625 -33.796875 20.359375 -30.734375 C 20.960938 -27.679688 22.144531 -24.875 23.90625 -22.3125 C 25.664062 -19.75 27.976562 -17.703125 30.84375 -16.171875 C 33.707031 -14.640625 37.097656 -13.875 41.015625 -13.875 C 41.679688 -13.875 42.347656 -13.921875 43.015625 -14.015625 C 43.679688 -14.117188 44.347656 -14.203125 45.015625 -14.265625 L 45.015625 -35.734375 L 59.484375 -35.734375 Z M 59.484375 -4.390625 "/></g></g></g><g fill="#3abef9" fill-opacity="1"><g transform="translate(1027.043467, 440.490916)"><g><path d="M 43.515625 0 L 29.140625 -27.25 L 22.265625 -27.25 L 22.265625 0 L 7.984375 0 L 7.984375 -71.359375 L 36.125 -71.359375 C 40.382812 -71.359375 43.992188 -70.476562 46.953125 -68.71875 C 49.921875 -66.957031 52.234375 -64.660156 53.890625 -61.828125 C 55.554688 -59.003906 56.585938 -55.941406 56.984375 -52.640625 C 57.390625 -49.347656 57.140625 -46.125 56.234375 -42.96875 C 55.335938 -39.8125 53.804688 -37.015625 51.640625 -34.578125 C 49.484375 -32.148438 46.644531 -30.4375 43.125 -29.4375 L 59.6875 0 Z M 22.265625 -41.125 L 34.828125 -41.125 C 36.765625 -41.125 38.3125 -41.65625 39.46875 -42.71875 C 40.632812 -43.78125 41.414062 -45.109375 41.8125 -46.703125 C 42.21875 -48.304688 42.21875 -49.90625 41.8125 -51.5 C 41.414062 -53.101562 40.632812 -54.4375 39.46875 -55.5 C 38.3125 -56.5625 36.765625 -57.09375 34.828125 -57.09375 L 22.265625 -57.09375 Z M 22.265625 -41.125 "/></g></g></g><g fill="#3abef9" fill-opacity="1"><g transform="translate(1083.231752, 440.490916)"><g><path d="M 42.328125 1 C 36.203125 1 30.828125 -0.03125 26.203125 -2.09375 C 21.578125 -4.15625 17.734375 -6.929688 14.671875 -10.421875 C 11.609375 -13.921875 9.3125 -17.863281 7.78125 -22.25 C 6.25 -26.644531 5.484375 -31.15625 5.484375 -35.78125 C 5.484375 -40.40625 6.25 -44.910156 7.78125 -49.296875 C 9.3125 -53.691406 11.609375 -57.632812 14.671875 -61.125 C 17.734375 -64.625 21.578125 -67.40625 26.203125 -69.46875 C 30.828125 -71.53125 36.203125 -72.5625 42.328125 -72.5625 C 48.441406 -72.5625 53.8125 -71.53125 58.4375 -69.46875 C 63.0625 -67.40625 66.90625 -64.625 69.96875 -61.125 C 73.03125 -57.632812 75.328125 -53.691406 76.859375 -49.296875 C 78.390625 -44.910156 79.15625 -40.40625 79.15625 -35.78125 C 79.15625 -31.15625 78.390625 -26.644531 76.859375 -22.25 C 75.328125 -17.863281 73.03125 -13.921875 69.96875 -10.421875 C 66.90625 -6.929688 63.0625 -4.15625 58.4375 -2.09375 C 53.8125 -0.03125 48.441406 1 42.328125 1 Z M 42.328125 -13.78125 C 46.378906 -13.78125 49.867188 -14.578125 52.796875 -16.171875 C 55.722656 -17.765625 58.050781 -19.875 59.78125 -22.5 C 61.519531 -25.132812 62.6875 -28.015625 63.28125 -31.140625 C 63.875 -34.265625 63.875 -37.390625 63.28125 -40.515625 C 62.6875 -43.648438 61.519531 -46.53125 59.78125 -49.15625 C 58.050781 -51.78125 55.722656 -53.890625 52.796875 -55.484375 C 49.867188 -57.085938 46.378906 -57.890625 42.328125 -57.890625 C 38.265625 -57.890625 34.769531 -57.085938 31.84375 -55.484375 C 28.914062 -53.890625 26.585938 -51.78125 24.859375 -49.15625 C 23.128906 -46.53125 21.960938 -43.648438 21.359375 -40.515625 C 20.765625 -37.390625 20.765625 -34.265625 21.359375 -31.140625 C 21.960938 -28.015625 23.128906 -25.132812 24.859375 -22.5 C 26.585938 -19.875 28.914062 -17.765625 31.84375 -16.171875 C 34.769531 -14.578125 38.265625 -13.78125 42.328125 -13.78125 Z M 42.328125 -13.78125 "/></g></g></g><g fill="#3abef9" fill-opacity="1"><g transform="translate(1162.773839, 440.490916)"><g><path d="M 59.1875 -24.859375 C 59.1875 -19.992188 58.253906 -15.832031 56.390625 -12.375 C 54.523438 -8.914062 52.0625 -6.15625 49 -4.09375 C 45.945312 -2.03125 42.585938 -0.648438 38.921875 0.046875 C 35.265625 0.742188 31.585938 0.742188 27.890625 0.046875 C 24.203125 -0.648438 20.828125 -2.03125 17.765625 -4.09375 C 14.703125 -6.15625 12.238281 -8.914062 10.375 -12.375 C 8.507812 -15.832031 7.578125 -19.992188 7.578125 -24.859375 L 7.578125 -71.359375 L 21.859375 -71.359375 L 21.859375 -24.953125 C 21.859375 -21.960938 22.640625 -19.566406 24.203125 -17.765625 C 25.765625 -15.972656 27.691406 -14.773438 29.984375 -14.171875 C 32.285156 -13.578125 34.582031 -13.578125 36.875 -14.171875 C 39.175781 -14.773438 41.109375 -15.972656 42.671875 -17.765625 C 44.234375 -19.566406 45.015625 -21.960938 45.015625 -24.953125 L 45.015625 -71.359375 L 59.1875 -71.359375 Z M 59.1875 -24.859375 "/></g></g></g><g fill="#3abef9" fill-opacity="1"><g transform="translate(1224.750681, 440.490916)"><g><path d="M 22.265625 -38.828125 L 22.265625 0 L 7.984375 0 L 7.984375 -72.859375 L 11.78125 -72.859375 L 47.8125 -30.9375 L 47.8125 -71.265625 L 62.1875 -71.265625 L 62.1875 1.5 L 58.390625 1.5 Z M 22.265625 -38.828125 "/></g></g></g><g fill="#3abef9" fill-opacity="1"><g transform="translate(1290.021015, 440.490916)"><g><path d="M 29.25 -71.359375 C 35.164062 -71.359375 40.351562 -70.359375 44.8125 -68.359375 C 49.269531 -66.367188 52.976562 -63.675781 55.9375 -60.28125 C 58.90625 -56.894531 61.132812 -53.070312 62.625 -48.8125 C 64.125 -44.550781 64.875 -40.175781 64.875 -35.6875 C 64.875 -31.195312 64.125 -26.820312 62.625 -22.5625 C 61.132812 -18.300781 58.90625 -14.472656 55.9375 -11.078125 C 52.976562 -7.679688 49.269531 -4.984375 44.8125 -2.984375 C 40.351562 -0.992188 35.164062 0 29.25 0 L 7.984375 0 L 7.984375 -71.359375 Z M 29.25 -57.09375 L 22.265625 -57.09375 L 22.265625 -14.265625 L 29.25 -14.265625 C 33.238281 -14.265625 36.644531 -15.03125 39.46875 -16.5625 C 42.300781 -18.09375 44.566406 -20.140625 46.265625 -22.703125 C 47.960938 -25.265625 49.09375 -28.078125 49.65625 -31.140625 C 50.21875 -34.203125 50.21875 -37.242188 49.65625 -40.265625 C 49.09375 -43.296875 47.960938 -46.09375 46.265625 -48.65625 C 44.566406 -51.21875 42.300781 -53.265625 39.46875 -54.796875 C 36.644531 -56.328125 33.238281 -57.09375 29.25 -57.09375 Z M 29.25 -57.09375 "/></g></g></g><g fill="#3abef9" fill-opacity="1"><g transform="translate(737.319353, 548.73228)"><g><path d="M 43.515625 0 L 29.140625 -27.25 L 22.265625 -27.25 L 22.265625 0 L 7.984375 0 L 7.984375 -71.359375 L 36.125 -71.359375 C 40.382812 -71.359375 43.992188 -70.476562 46.953125 -68.71875 C 49.921875 -66.957031 52.234375 -64.660156 53.890625 -61.828125 C 55.554688 -59.003906 56.585938 -55.941406 56.984375 -52.640625 C 57.390625 -49.347656 57.140625 -46.125 56.234375 -42.96875 C 55.335938 -39.8125 53.804688 -37.015625 51.640625 -34.578125 C 49.484375 -32.148438 46.644531 -30.4375 43.125 -29.4375 L 59.6875 0 Z M 22.265625 -41.125 L 34.828125 -41.125 C 36.765625 -41.125 38.3125 -41.65625 39.46875 -42.71875 C 40.632812 -43.78125 41.414062 -45.109375 41.8125 -46.703125 C 42.21875 -48.304688 42.21875 -49.90625 41.8125 -51.5 C 41.414062 -53.101562 40.632812 -54.4375 39.46875 -55.5 C 38.3125 -56.5625 36.765625 -57.09375 34.828125 -57.09375 L 22.265625 -57.09375 Z M 22.265625 -41.125 "/></g></g></g><g fill="#3abef9" fill-opacity="1"><g transform="translate(793.507646, 548.73228)"><g><path d="M 44.921875 0 L 7.984375 0 L 7.984375 -71.359375 L 43.71875 -71.359375 L 43.71875 -57.09375 L 22.265625 -57.09375 L 22.265625 -42.8125 L 41.015625 -42.8125 L 41.015625 -28.546875 L 22.265625 -28.546875 L 22.265625 -14.265625 L 44.921875 -14.265625 Z M 44.921875 0 "/></g></g></g><g fill="#3abef9" fill-opacity="1"><g transform="translate(838.817464, 548.73228)"><g><path d="M 40.71875 -41.125 L 68.875 -72.46875 L 73.359375 -72.46875 L 73.359375 0 L 58.890625 0 L 58.984375 -39.828125 L 40.71875 -20.65625 L 22.453125 -39.828125 L 22.453125 0 L 7.984375 0 L 7.984375 -72.46875 L 12.578125 -72.46875 Z M 40.71875 -41.125 "/></g></g></g><g fill="#3abef9" fill-opacity="1"><g transform="translate(915.265683, 548.73228)"><g><path d="M 42.328125 1 C 36.203125 1 30.828125 -0.03125 26.203125 -2.09375 C 21.578125 -4.15625 17.734375 -6.929688 14.671875 -10.421875 C 11.609375 -13.921875 9.3125 -17.863281 7.78125 -22.25 C 6.25 -26.644531 5.484375 -31.15625 5.484375 -35.78125 C 5.484375 -40.40625 6.25 -44.910156 7.78125 -49.296875 C 9.3125 -53.691406 11.609375 -57.632812 14.671875 -61.125 C 17.734375 -64.625 21.578125 -67.40625 26.203125 -69.46875 C 30.828125 -71.53125 36.203125 -72.5625 42.328125 -72.5625 C 48.441406 -72.5625 53.8125 -71.53125 58.4375 -69.46875 C 63.0625 -67.40625 66.90625 -64.625 69.96875 -61.125 C 73.03125 -57.632812 75.328125 -53.691406 76.859375 -49.296875 C 78.390625 -44.910156 79.15625 -40.40625 79.15625 -35.78125 C 79.15625 -31.15625 78.390625 -26.644531 76.859375 -22.25 C 75.328125 -17.863281 73.03125 -13.921875 69.96875 -10.421875 C 66.90625 -6.929688 63.0625 -4.15625 58.4375 -2.09375 C 53.8125 -0.03125 48.441406 1 42.328125 1 Z M 42.328125 -13.78125 C 46.378906 -13.78125 49.867188 -14.578125 52.796875 -16.171875 C 55.722656 -17.765625 58.050781 -19.875 59.78125 -22.5 C 61.519531 -25.132812 62.6875 -28.015625 63.28125 -31.140625 C 63.875 -34.265625 63.875 -37.390625 63.28125 -40.515625 C 62.6875 -43.648438 61.519531 -46.53125 59.78125 -49.15625 C 58.050781 -51.78125 55.722656 -53.890625 52.796875 -55.484375 C 49.867188 -57.085938 46.378906 -57.890625 42.328125 -57.890625 C 38.265625 -57.890625 34.769531 -57.085938 31.84375 -55.484375 C 28.914062 -53.890625 26.585938 -51.78125 24.859375 -49.15625 C 23.128906 -46.53125 21.960938 -43.648438 21.359375 -40.515625 C 20.765625 -37.390625 20.765625 -34.265625 21.359375 -31.140625 C 21.960938 -28.015625 23.128906 -25.132812 24.859375 -22.5 C 26.585938 -19.875 28.914062 -17.765625 31.84375 -16.171875 C 34.769531 -14.578125 38.265625 -13.78125 42.328125 -13.78125 Z M 42.328125 -13.78125 "/></g></g></g><g fill="#3abef9" fill-opacity="1"><g transform="translate(994.80777, 548.73228)"><g><path d="M 30.140625 1.5 L 0.59375 -71.359375 L 17.0625 -71.359375 L 26.546875 -47.609375 L 31.734375 -32.84375 L 36.828125 -47.109375 L 46.40625 -71.359375 L 62.875 -71.359375 L 33.34375 1.5 Z M 30.140625 1.5 "/></g></g></g><g fill="#3abef9" fill-opacity="1"><g transform="translate(1053.391334, 548.73228)"><g><path d="M 44.921875 0 L 7.984375 0 L 7.984375 -71.359375 L 43.71875 -71.359375 L 43.71875 -57.09375 L 22.265625 -57.09375 L 22.265625 -42.8125 L 41.015625 -42.8125 L 41.015625 -28.546875 L 22.265625 -28.546875 L 22.265625 -14.265625 L 44.921875 -14.265625 Z M 44.921875 0 "/></g></g></g><g fill="#3abef9" fill-opacity="1"><g transform="translate(1098.701143, 548.73228)"><g><path d="M 43.515625 0 L 29.140625 -27.25 L 22.265625 -27.25 L 22.265625 0 L 7.984375 0 L 7.984375 -71.359375 L 36.125 -71.359375 C 40.382812 -71.359375 43.992188 -70.476562 46.953125 -68.71875 C 49.921875 -66.957031 52.234375 -64.660156 53.890625 -61.828125 C 55.554688 -59.003906 56.585938 -55.941406 56.984375 -52.640625 C 57.390625 -49.347656 57.140625 -46.125 56.234375 -42.96875 C 55.335938 -39.8125 53.804688 -37.015625 51.640625 -34.578125 C 49.484375 -32.148438 46.644531 -30.4375 43.125 -29.4375 L 59.6875 0 Z M 22.265625 -41.125 L 34.828125 -41.125 C 36.765625 -41.125 38.3125 -41.65625 39.46875 -42.71875 C 40.632812 -43.78125 41.414062 -45.109375 41.8125 -46.703125 C 42.21875 -48.304688 42.21875 -49.90625 41.8125 -51.5 C 41.414062 -53.101562 40.632812 -54.4375 39.46875 -55.5 C 38.3125 -56.5625 36.765625 -57.09375 34.828125 -57.09375 L 22.265625 -57.09375 Z M 22.265625 -41.125 "/></g></g></g><g clip-path="url(#8d7b964c58)"><g clip-path="url(#182f6777db)"><g clip-path="url(#42003c1866)"><path fill="#3abef9" d="M 238.117188 169.589844 L 196.832031 162.9375 C 192.4375 162.214844 188.074219 163.265625 184.417969 165.886719 C 180.765625 168.507812 178.367188 172.300781 177.640625 176.691406 L 158.675781 289.1875 C 157.949219 293.582031 159.003906 297.945312 161.554688 301.507812 C 164.109375 305.074219 167.96875 307.5625 172.296875 308.195312 L 198.746094 312.480469 C 199.371094 312.582031 199.960938 312.4375 200.417969 312.109375 L 264.839844 265.9375 C 265.847656 265.214844 266.078125 263.804688 265.359375 262.800781 C 264.640625 261.792969 263.226562 261.5625 262.222656 262.28125 L 236.269531 280.882812 L 251.804688 188.6875 C 253.214844 179.65625 247.125 171.15625 238.117188 169.589844 Z M 198.527344 307.933594 L 173.113281 303.738281 C 169.976562 303.21875 167.109375 301.539062 165.210938 298.890625 C 163.3125 296.238281 162.550781 293.050781 163.160156 289.847656 L 172.425781 234.652344 L 237.714844 245.265625 L 231.058594 284.617188 Z M 198.527344 307.933594 " fill-opacity="1" fill-rule="nonzero"/></g></g></g><g clip-path="url(#415831ac83)"><path fill="#3abef9" d="M 929.140625 263.515625 C 928.75 264.1875 928.410156 264.890625 928.128906 265.613281 C 927.84375 266.339844 927.613281 267.082031 927.441406 267.84375 C 927.269531 268.601562 927.152344 269.371094 927.097656 270.148438 C 927.039062 270.925781 927.039062 271.703125 927.101562 272.480469 C 927.160156 273.253906 927.277344 274.023438 927.453125 274.78125 C 927.628906 275.542969 927.859375 276.285156 928.144531 277.007812 C 928.429688 277.734375 928.769531 278.433594 929.164062 279.105469 C 929.554688 279.777344 929.996094 280.417969 930.484375 281.027344 C 930.972656 281.632812 931.503906 282.203125 932.074219 282.730469 C 932.648438 283.257812 933.257812 283.738281 933.90625 284.171875 C 934.550781 284.609375 935.226562 284.996094 935.929688 285.328125 C 936.632812 285.664062 937.359375 285.941406 938.105469 286.167969 C 938.851562 286.390625 939.609375 286.5625 940.378906 286.671875 C 941.152344 286.78125 941.925781 286.835938 942.707031 286.828125 C 943.484375 286.824219 944.261719 286.761719 945.03125 286.636719 C 945.800781 286.515625 946.554688 286.335938 947.296875 286.101562 L 959.191406 294.726562 L 947.410156 303.351562 C 946.8125 303.164062 946.203125 303.011719 945.585938 302.898438 C 944.96875 302.785156 944.347656 302.707031 943.722656 302.667969 C 943.097656 302.632812 942.472656 302.632812 941.84375 302.667969 C 941.21875 302.707031 940.597656 302.785156 939.980469 302.898438 C 939.363281 303.011719 938.757812 303.160156 938.160156 303.347656 C 937.558594 303.539062 936.976562 303.761719 936.40625 304.019531 C 935.832031 304.277344 935.28125 304.570312 934.746094 304.898438 C 934.210938 305.222656 933.695312 305.582031 933.203125 305.972656 C 932.710938 306.359375 932.246094 306.777344 931.804688 307.222656 C 931.363281 307.667969 930.953125 308.140625 930.566406 308.636719 C 930.183594 309.132812 929.832031 309.648438 929.511719 310.1875 C 929.191406 310.726562 928.90625 311.285156 928.652344 311.859375 C 928.398438 312.433594 928.183594 313.019531 928 313.621094 C 927.820312 314.21875 927.675781 314.828125 927.570312 315.449219 C 927.460938 316.066406 927.394531 316.6875 927.363281 317.3125 C 927.332031 317.941406 927.335938 318.566406 927.382812 319.191406 C 927.429688 319.816406 927.511719 320.4375 927.632812 321.054688 C 927.753906 321.667969 927.910156 322.273438 928.105469 322.871094 C 928.300781 323.464844 928.53125 324.046875 928.792969 324.617188 C 929.058594 325.183594 929.359375 325.734375 929.691406 326.265625 C 930.023438 326.796875 930.386719 327.308594 930.78125 327.792969 C 931.175781 328.28125 931.601562 328.742188 932.050781 329.179688 C 932.5 329.617188 932.976562 330.023438 933.476562 330.402344 C 933.976562 330.777344 934.5 331.125 935.042969 331.4375 C 935.585938 331.753906 936.144531 332.035156 936.722656 332.28125 C 937.296875 332.527344 937.886719 332.734375 938.488281 332.910156 C 939.09375 333.085938 939.703125 333.222656 940.320312 333.320312 C 940.941406 333.421875 941.5625 333.484375 942.191406 333.507812 C 942.816406 333.53125 943.441406 333.519531 944.066406 333.464844 C 944.691406 333.414062 945.3125 333.324219 945.925781 333.195312 C 946.539062 333.066406 947.144531 332.902344 947.738281 332.703125 C 948.332031 332.5 948.910156 332.265625 949.476562 331.992188 C 950.042969 331.71875 950.589844 331.414062 951.117188 331.078125 C 951.644531 330.738281 952.148438 330.367188 952.632812 329.96875 C 953.113281 329.566406 953.570312 329.140625 954.003906 328.683594 C 954.433594 328.230469 954.835938 327.75 955.207031 327.242188 C 955.578125 326.738281 955.917969 326.214844 956.226562 325.667969 C 956.535156 325.121094 956.808594 324.558594 957.050781 323.980469 C 957.289062 323.398438 957.492188 322.808594 957.660156 322.203125 C 957.828125 321.597656 957.957031 320.988281 958.050781 320.367188 C 958.144531 319.746094 958.199219 319.121094 958.214844 318.496094 C 958.230469 317.867188 958.210938 317.242188 958.152344 316.621094 C 958.09375 315.996094 957.996094 315.375 957.859375 314.765625 C 957.726562 314.152344 957.554688 313.550781 957.347656 312.957031 C 957.136719 312.367188 956.894531 311.789062 956.617188 311.226562 C 956.339844 310.664062 956.027344 310.121094 955.683594 309.597656 C 955.339844 309.074219 954.964844 308.574219 954.558594 308.09375 C 954.152344 307.617188 953.71875 307.164062 953.257812 306.738281 L 965.984375 299.710938 L 983.273438 312.308594 C 986.46875 314.636719 989.855469 316.648438 993.429688 318.34375 C 997 320.039062 1000.699219 321.386719 1004.527344 322.386719 C 1008.351562 323.390625 1012.238281 324.027344 1016.183594 324.300781 C 1020.128906 324.574219 1024.066406 324.480469 1027.992188 324.015625 L 974.964844 294.726562 L 1028.078125 265.40625 C 1024.152344 264.953125 1020.222656 264.863281 1016.285156 265.140625 C 1012.34375 265.417969 1008.464844 266.058594 1004.648438 267.0625 C 1000.828125 268.066406 997.132812 269.417969 993.566406 271.113281 C 990 272.804688 986.621094 274.816406 983.429688 277.144531 L 965.996094 289.804688 L 953.148438 282.714844 C 953.558594 282.335938 953.949219 281.933594 954.316406 281.515625 C 954.683594 281.09375 955.027344 280.65625 955.347656 280.199219 C 955.671875 279.742188 955.964844 279.265625 956.234375 278.777344 C 956.503906 278.289062 956.746094 277.785156 956.964844 277.269531 C 957.179688 276.753906 957.367188 276.230469 957.523438 275.695312 C 957.683594 275.15625 957.8125 274.617188 957.914062 274.066406 C 958.015625 273.515625 958.085938 272.960938 958.125 272.40625 C 958.167969 271.847656 958.175781 271.289062 958.15625 270.730469 C 958.136719 270.171875 958.089844 269.617188 958.011719 269.0625 C 957.929688 268.511719 957.820312 267.964844 957.683594 267.421875 C 957.546875 266.882812 957.378906 266.347656 957.183594 265.824219 C 956.988281 265.300781 956.761719 264.789062 956.511719 264.289062 C 956.261719 263.792969 955.984375 263.308594 955.683594 262.835938 C 955.378906 262.367188 955.050781 261.917969 954.699219 261.480469 C 954.347656 261.046875 953.972656 260.632812 953.578125 260.238281 C 953.179688 259.847656 952.765625 259.476562 952.328125 259.125 C 951.890625 258.777344 951.4375 258.453125 950.96875 258.152344 C 950.496094 257.851562 950.007812 257.578125 949.507812 257.332031 C 949.007812 257.082031 948.496094 256.863281 947.96875 256.671875 C 947.445312 256.476562 946.914062 256.316406 946.371094 256.179688 C 945.828125 256.046875 945.28125 255.941406 944.726562 255.863281 C 944.171875 255.789062 943.617188 255.742188 943.058594 255.726562 C 942.5 255.710938 941.941406 255.726562 941.382812 255.769531 C 940.828125 255.8125 940.273438 255.886719 939.726562 255.992188 C 939.175781 256.09375 938.632812 256.226562 938.101562 256.390625 C 937.566406 256.554688 937.039062 256.742188 936.527344 256.960938 C 936.011719 257.179688 935.511719 257.425781 935.023438 257.699219 C 934.535156 257.972656 934.066406 258.269531 933.609375 258.59375 C 933.152344 258.917969 932.71875 259.265625 932.300781 259.636719 C 931.878906 260.007812 931.484375 260.398438 931.109375 260.8125 C 930.730469 261.226562 930.378906 261.660156 930.050781 262.109375 C 929.722656 262.5625 929.417969 263.03125 929.140625 263.515625 Z M 950.566406 313.648438 C 950.863281 314.164062 951.109375 314.703125 951.300781 315.269531 C 951.492188 315.832031 951.628906 316.410156 951.707031 317 C 951.785156 317.59375 951.804688 318.1875 951.765625 318.78125 C 951.726562 319.375 951.628906 319.960938 951.476562 320.539062 C 951.320312 321.113281 951.113281 321.667969 950.847656 322.203125 C 950.585938 322.738281 950.273438 323.242188 949.910156 323.714844 C 949.546875 324.191406 949.140625 324.621094 948.691406 325.015625 C 948.242188 325.410156 947.761719 325.753906 947.246094 326.054688 C 946.726562 326.351562 946.1875 326.597656 945.625 326.789062 C 945.058594 326.980469 944.480469 327.113281 943.890625 327.191406 C 943.296875 327.269531 942.703125 327.289062 942.109375 327.25 C 941.515625 327.210938 940.929688 327.113281 940.351562 326.960938 C 939.777344 326.804688 939.222656 326.597656 938.6875 326.332031 C 938.152344 326.070312 937.648438 325.753906 937.175781 325.390625 C 936.703125 325.027344 936.269531 324.621094 935.875 324.175781 C 935.484375 323.726562 935.136719 323.242188 934.839844 322.726562 C 934.542969 322.210938 934.296875 321.667969 934.105469 321.105469 C 933.914062 320.539062 933.78125 319.960938 933.703125 319.371094 C 933.625 318.777344 933.605469 318.1875 933.644531 317.589844 C 933.683594 316.996094 933.78125 316.410156 933.9375 315.835938 C 934.089844 315.257812 934.300781 314.703125 934.566406 314.167969 C 934.828125 313.632812 935.140625 313.128906 935.503906 312.65625 C 935.871094 312.183594 936.273438 311.75 936.722656 311.359375 C 937.171875 310.964844 937.65625 310.621094 938.171875 310.324219 C 938.6875 310.023438 939.226562 309.78125 939.789062 309.585938 C 940.355469 309.394531 940.929688 309.261719 941.523438 309.183594 C 942.113281 309.101562 942.703125 309.082031 943.296875 309.121094 C 943.894531 309.160156 944.476562 309.253906 945.054688 309.410156 C 945.628906 309.5625 946.183594 309.769531 946.71875 310.035156 C 947.253906 310.296875 947.757812 310.609375 948.230469 310.96875 C 948.703125 311.332031 949.136719 311.738281 949.527344 312.183594 C 949.921875 312.632812 950.265625 313.113281 950.566406 313.628906 Z M 947.140625 263.449219 C 947.65625 263.746094 948.136719 264.09375 948.585938 264.488281 C 949.035156 264.878906 949.441406 265.3125 949.800781 265.785156 C 950.164062 266.261719 950.476562 266.765625 950.742188 267.296875 C 951.003906 267.832031 951.214844 268.390625 951.367188 268.964844 C 951.523438 269.542969 951.617188 270.125 951.65625 270.722656 C 951.695312 271.316406 951.675781 271.910156 951.597656 272.5 C 951.519531 273.089844 951.382812 273.667969 951.191406 274.234375 C 951 274.796875 950.753906 275.339844 950.457031 275.855469 C 950.15625 276.371094 949.8125 276.851562 949.417969 277.300781 C 949.027344 277.75 948.59375 278.152344 948.117188 278.515625 C 947.644531 278.878906 947.140625 279.191406 946.605469 279.457031 C 946.070312 279.71875 945.515625 279.929688 944.941406 280.082031 C 944.363281 280.234375 943.777344 280.332031 943.183594 280.371094 C 942.589844 280.410156 941.996094 280.390625 941.40625 280.3125 C 940.8125 280.234375 940.234375 280.097656 939.671875 279.90625 C 939.105469 279.714844 938.566406 279.46875 938.050781 279.167969 C 937.535156 278.871094 937.050781 278.523438 936.605469 278.132812 C 936.15625 277.738281 935.75 277.304688 935.390625 276.832031 C 935.027344 276.359375 934.714844 275.855469 934.449219 275.320312 C 934.1875 274.785156 933.976562 274.230469 933.824219 273.652344 C 933.671875 273.078125 933.574219 272.492188 933.535156 271.894531 C 933.496094 271.300781 933.515625 270.707031 933.59375 270.117188 C 933.671875 269.527344 933.808594 268.949219 934 268.382812 C 934.191406 267.820312 934.4375 267.28125 934.738281 266.761719 C 935.035156 266.246094 935.378906 265.761719 935.773438 265.3125 C 936.164062 264.863281 936.597656 264.457031 937.070312 264.09375 C 937.542969 263.730469 938.046875 263.417969 938.582031 263.152344 C 939.117188 262.886719 939.671875 262.679688 940.246094 262.523438 C 940.824219 262.367188 941.410156 262.273438 942.003906 262.234375 C 942.597656 262.195312 943.191406 262.210938 943.785156 262.289062 C 944.375 262.367188 944.953125 262.503906 945.519531 262.695312 C 946.082031 262.886719 946.625 263.132812 947.140625 263.429688 Z M 947.140625 263.449219 " fill-opacity="1" fill-rule="nonzero"/></g><path fill="#3abef9" d="M 1033.648438 298.273438 L 1028.078125 298.273438 C 1027.769531 298.273438 1027.472656 298.214844 1027.1875 298.097656 C 1026.902344 297.976562 1026.652344 297.8125 1026.433594 297.59375 C 1026.21875 297.375 1026.050781 297.125 1025.933594 296.839844 C 1025.8125 296.554688 1025.753906 296.257812 1025.753906 295.953125 C 1025.753906 295.644531 1025.8125 295.347656 1025.933594 295.0625 C 1026.050781 294.777344 1026.21875 294.527344 1026.433594 294.3125 C 1026.652344 294.09375 1026.902344 293.925781 1027.1875 293.808594 C 1027.472656 293.691406 1027.769531 293.628906 1028.078125 293.628906 L 1033.648438 293.628906 C 1033.953125 293.628906 1034.25 293.691406 1034.535156 293.808594 C 1034.820312 293.925781 1035.070312 294.09375 1035.289062 294.3125 C 1035.503906 294.527344 1035.671875 294.777344 1035.789062 295.0625 C 1035.910156 295.347656 1035.96875 295.644531 1035.96875 295.953125 C 1035.96875 296.257812 1035.910156 296.554688 1035.789062 296.839844 C 1035.671875 297.125 1035.503906 297.375 1035.289062 297.59375 C 1035.070312 297.8125 1034.820312 297.976562 1034.535156 298.097656 C 1034.25 298.214844 1033.953125 298.273438 1033.648438 298.273438 Z M 1033.648438 298.273438 " fill-opacity="1" fill-rule="nonzero"/><path fill="#3abef9" d="M 1286.40625 298.273438 L 1274.941406 298.273438 C 1274.632812 298.273438 1274.339844 298.214844 1274.054688 298.097656 C 1273.769531 297.976562 1273.519531 297.8125 1273.300781 297.59375 C 1273.082031 297.375 1272.914062 297.125 1272.796875 296.839844 C 1272.679688 296.554688 1272.621094 296.257812 1272.621094 295.953125 C 1272.621094 295.644531 1272.679688 295.347656 1272.796875 295.0625 C 1272.914062 294.777344 1273.082031 294.527344 1273.300781 294.3125 C 1273.519531 294.09375 1273.769531 293.925781 1274.054688 293.808594 C 1274.339844 293.691406 1274.632812 293.628906 1274.941406 293.628906 L 1286.425781 293.628906 C 1286.734375 293.628906 1287.03125 293.691406 1287.3125 293.808594 C 1287.597656 293.925781 1287.847656 294.09375 1288.066406 294.3125 C 1288.285156 294.527344 1288.453125 294.777344 1288.570312 295.0625 C 1288.6875 295.347656 1288.746094 295.644531 1288.746094 295.953125 C 1288.746094 296.257812 1288.6875 296.554688 1288.570312 296.839844 C 1288.453125 297.125 1288.285156 297.375 1288.066406 297.59375 C 1287.847656 297.8125 1287.597656 297.976562 1287.3125 298.097656 C 1287.03125 298.214844 1286.734375 298.273438 1286.425781 298.273438 Z M 1263.429688 298.273438 L 1251.9375 298.273438 C 1251.628906 298.273438 1251.332031 298.214844 1251.046875 298.097656 C 1250.765625 297.976562 1250.511719 297.8125 1250.296875 297.59375 C 1250.078125 297.375 1249.910156 297.125 1249.792969 296.839844 C 1249.675781 296.554688 1249.617188 296.257812 1249.617188 295.953125 C 1249.617188 295.644531 1249.675781 295.347656 1249.792969 295.0625 C 1249.910156 294.777344 1250.078125 294.527344 1250.296875 294.3125 C 1250.511719 294.09375 1250.765625 293.925781 1251.046875 293.808594 C 1251.332031 293.691406 1251.628906 293.628906 1251.9375 293.628906 L 1263.429688 293.628906 C 1263.738281 293.628906 1264.035156 293.691406 1264.316406 293.808594 C 1264.601562 293.925781 1264.855469 294.09375 1265.070312 294.3125 C 1265.289062 294.527344 1265.457031 294.777344 1265.574219 295.0625 C 1265.691406 295.347656 1265.75 295.644531 1265.75 295.953125 C 1265.75 296.257812 1265.691406 296.554688 1265.574219 296.839844 C 1265.457031 297.125 1265.289062 297.375 1265.070312 297.59375 C 1264.855469 297.8125 1264.601562 297.976562 1264.316406 298.097656 C 1264.035156 298.214844 1263.738281 298.273438 1263.429688 298.273438 Z M 1240.453125 298.273438 L 1228.960938 298.273438 C 1228.652344 298.273438 1228.355469 298.214844 1228.070312 298.097656 C 1227.785156 297.976562 1227.535156 297.8125 1227.316406 297.59375 C 1227.101562 297.375 1226.933594 297.125 1226.816406 296.839844 C 1226.699219 296.554688 1226.636719 296.257812 1226.636719 295.953125 C 1226.636719 295.644531 1226.699219 295.347656 1226.816406 295.0625 C 1226.933594 294.777344 1227.101562 294.527344 1227.316406 294.3125 C 1227.535156 294.09375 1227.785156 293.925781 1228.070312 293.808594 C 1228.355469 293.691406 1228.652344 293.628906 1228.960938 293.628906 L 1240.453125 293.628906 C 1240.761719 293.628906 1241.054688 293.691406 1241.339844 293.808594 C 1241.625 293.925781 1241.875 294.09375 1242.09375 294.3125 C 1242.3125 294.527344 1242.480469 294.777344 1242.597656 295.0625 C 1242.714844 295.347656 1242.773438 295.644531 1242.773438 295.953125 C 1242.773438 296.257812 1242.714844 296.554688 1242.597656 296.839844 C 1242.480469 297.125 1242.3125 297.375 1242.09375 297.59375 C 1241.875 297.8125 1241.625 297.976562 1241.339844 298.097656 C 1241.054688 298.214844 1240.761719 298.273438 1240.453125 298.273438 Z M 1217.476562 298.273438 L 1205.980469 298.273438 C 1205.675781 298.273438 1205.378906 298.214844 1205.09375 298.097656 C 1204.808594 297.976562 1204.558594 297.8125 1204.339844 297.59375 C 1204.125 297.375 1203.957031 297.125 1203.835938 296.839844 C 1203.71875 296.554688 1203.660156 296.257812 1203.660156 295.953125 C 1203.660156 295.644531 1203.71875 295.347656 1203.835938 295.0625 C 1203.957031 294.777344 1204.125 294.527344 1204.339844 294.3125 C 1204.558594 294.09375 1204.808594 293.925781 1205.09375 293.808594 C 1205.378906 293.691406 1205.675781 293.628906 1205.980469 293.628906 L 1217.476562 293.628906 C 1217.78125 293.628906 1218.078125 293.691406 1218.363281 293.808594 C 1218.648438 293.925781 1218.898438 294.09375 1219.117188 294.3125 C 1219.335938 294.527344 1219.5 294.777344 1219.621094 295.0625 C 1219.738281 295.347656 1219.796875 295.644531 1219.796875 295.953125 C 1219.796875 296.257812 1219.738281 296.554688 1219.621094 296.839844 C 1219.5 297.125 1219.335938 297.375 1219.117188 297.59375 C 1218.898438 297.8125 1218.648438 297.976562 1218.363281 298.097656 C 1218.078125 298.214844 1217.78125 298.273438 1217.476562 298.273438 Z M 1194.496094 298.273438 L 1183.03125 298.273438 C 1182.722656 298.273438 1182.429688 298.214844 1182.144531 298.097656 C 1181.859375 297.976562 1181.609375 297.8125 1181.390625 297.59375 C 1181.171875 297.375 1181.003906 297.125 1180.886719 296.839844 C 1180.769531 296.554688 1180.710938 296.257812 1180.710938 295.953125 C 1180.710938 295.644531 1180.769531 295.347656 1180.886719 295.0625 C 1181.003906 294.777344 1181.171875 294.527344 1181.390625 294.3125 C 1181.609375 294.09375 1181.859375 293.925781 1182.144531 293.808594 C 1182.429688 293.691406 1182.722656 293.628906 1183.03125 293.628906 L 1194.527344 293.628906 C 1194.832031 293.628906 1195.128906 293.691406 1195.414062 293.808594 C 1195.699219 293.925781 1195.949219 294.09375 1196.167969 294.3125 C 1196.382812 294.527344 1196.550781 294.777344 1196.671875 295.0625 C 1196.789062 295.347656 1196.847656 295.644531 1196.847656 295.953125 C 1196.847656 296.257812 1196.789062 296.554688 1196.671875 296.839844 C 1196.550781 297.125 1196.382812 297.375 1196.167969 297.59375 C 1195.949219 297.8125 1195.699219 297.976562 1195.414062 298.097656 C 1195.128906 298.214844 1194.832031 298.273438 1194.527344 298.273438 Z M 1171.519531 298.273438 L 1160.027344 298.273438 C 1159.71875 298.273438 1159.421875 298.214844 1159.140625 298.097656 C 1158.855469 297.976562 1158.605469 297.8125 1158.386719 297.59375 C 1158.167969 297.375 1158 297.125 1157.882812 296.839844 C 1157.765625 296.554688 1157.707031 296.257812 1157.707031 295.953125 C 1157.707031 295.644531 1157.765625 295.347656 1157.882812 295.0625 C 1158 294.777344 1158.167969 294.527344 1158.386719 294.3125 C 1158.605469 294.09375 1158.855469 293.925781 1159.140625 293.808594 C 1159.421875 293.691406 1159.71875 293.628906 1160.027344 293.628906 L 1171.519531 293.628906 C 1171.828125 293.628906 1172.125 293.691406 1172.410156 293.808594 C 1172.691406 293.925781 1172.945312 294.09375 1173.160156 294.3125 C 1173.378906 294.527344 1173.546875 294.777344 1173.664062 295.0625 C 1173.78125 295.347656 1173.839844 295.644531 1173.839844 295.953125 C 1173.839844 296.257812 1173.78125 296.554688 1173.664062 296.839844 C 1173.546875 297.125 1173.378906 297.375 1173.160156 297.59375 C 1172.945312 297.8125 1172.691406 297.976562 1172.410156 298.097656 C 1172.125 298.214844 1171.828125 298.273438 1171.519531 298.273438 Z M 1148.535156 298.273438 L 1137.050781 298.273438 C 1136.742188 298.273438 1136.445312 298.214844 1136.160156 298.097656 C 1135.878906 297.976562 1135.625 297.8125 1135.410156 297.59375 C 1135.191406 297.375 1135.023438 297.125 1134.90625 296.839844 C 1134.789062 296.554688 1134.730469 296.257812 1134.730469 295.953125 C 1134.730469 295.644531 1134.789062 295.347656 1134.90625 295.0625 C 1135.023438 294.777344 1135.191406 294.527344 1135.410156 294.3125 C 1135.625 294.09375 1135.878906 293.925781 1136.160156 293.808594 C 1136.445312 293.691406 1136.742188 293.628906 1137.050781 293.628906 L 1148.535156 293.628906 C 1148.839844 293.628906 1149.136719 293.691406 1149.421875 293.808594 C 1149.707031 293.925781 1149.957031 294.09375 1150.175781 294.3125 C 1150.390625 294.527344 1150.558594 294.777344 1150.679688 295.0625 C 1150.796875 295.347656 1150.855469 295.644531 1150.855469 295.953125 C 1150.855469 296.257812 1150.796875 296.554688 1150.679688 296.839844 C 1150.558594 297.125 1150.390625 297.375 1150.175781 297.59375 C 1149.957031 297.8125 1149.707031 297.976562 1149.421875 298.097656 C 1149.136719 298.214844 1148.839844 298.273438 1148.535156 298.273438 Z M 1125.554688 298.273438 L 1114.074219 298.273438 C 1113.765625 298.273438 1113.46875 298.214844 1113.183594 298.097656 C 1112.898438 297.976562 1112.648438 297.8125 1112.429688 297.59375 C 1112.214844 297.375 1112.046875 297.125 1111.929688 296.839844 C 1111.808594 296.554688 1111.75 296.257812 1111.75 295.953125 C 1111.75 295.644531 1111.808594 295.347656 1111.929688 295.0625 C 1112.046875 294.777344 1112.214844 294.527344 1112.429688 294.3125 C 1112.648438 294.09375 1112.898438 293.925781 1113.183594 293.808594 C 1113.46875 293.691406 1113.765625 293.628906 1114.074219 293.628906 L 1125.554688 293.628906 C 1125.863281 293.628906 1126.160156 293.691406 1126.445312 293.808594 C 1126.730469 293.925781 1126.980469 294.09375 1127.199219 294.3125 C 1127.414062 294.527344 1127.582031 294.777344 1127.699219 295.0625 C 1127.816406 295.347656 1127.878906 295.644531 1127.878906 295.953125 C 1127.878906 296.257812 1127.816406 296.554688 1127.699219 296.839844 C 1127.582031 297.125 1127.414062 297.375 1127.199219 297.59375 C 1126.980469 297.8125 1126.730469 297.976562 1126.445312 298.097656 C 1126.160156 298.214844 1125.863281 298.273438 1125.554688 298.273438 Z M 1102.578125 298.273438 L 1091.121094 298.273438 C 1090.816406 298.273438 1090.519531 298.214844 1090.234375 298.097656 C 1089.949219 297.976562 1089.699219 297.8125 1089.480469 297.59375 C 1089.265625 297.375 1089.097656 297.125 1088.976562 296.839844 C 1088.859375 296.554688 1088.800781 296.257812 1088.800781 295.953125 C 1088.800781 295.644531 1088.859375 295.347656 1088.976562 295.0625 C 1089.097656 294.777344 1089.265625 294.527344 1089.480469 294.3125 C 1089.699219 294.09375 1089.949219 293.925781 1090.234375 293.808594 C 1090.519531 293.691406 1090.816406 293.628906 1091.121094 293.628906 L 1102.605469 293.628906 C 1102.914062 293.628906 1103.210938 293.691406 1103.496094 293.808594 C 1103.777344 293.925781 1104.03125 294.09375 1104.246094 294.3125 C 1104.464844 294.527344 1104.632812 294.777344 1104.75 295.0625 C 1104.867188 295.347656 1104.925781 295.644531 1104.925781 295.953125 C 1104.925781 296.257812 1104.867188 296.554688 1104.75 296.839844 C 1104.632812 297.125 1104.464844 297.375 1104.246094 297.59375 C 1104.03125 297.8125 1103.777344 297.976562 1103.496094 298.097656 C 1103.210938 298.214844 1102.914062 298.273438 1102.605469 298.273438 Z M 1079.601562 298.273438 L 1068.109375 298.273438 C 1067.800781 298.273438 1067.503906 298.214844 1067.21875 298.097656 C 1066.9375 297.976562 1066.683594 297.8125 1066.46875 297.59375 C 1066.25 297.375 1066.082031 297.125 1065.964844 296.839844 C 1065.847656 296.554688 1065.789062 296.257812 1065.789062 295.953125 C 1065.789062 295.644531 1065.847656 295.347656 1065.964844 295.0625 C 1066.082031 294.777344 1066.25 294.527344 1066.46875 294.3125 C 1066.683594 294.09375 1066.9375 293.925781 1067.21875 293.808594 C 1067.503906 293.691406 1067.800781 293.628906 1068.109375 293.628906 L 1079.601562 293.628906 C 1079.910156 293.628906 1080.207031 293.691406 1080.488281 293.808594 C 1080.773438 293.925781 1081.023438 294.09375 1081.242188 294.3125 C 1081.460938 294.527344 1081.628906 294.777344 1081.746094 295.0625 C 1081.863281 295.347656 1081.921875 295.644531 1081.921875 295.953125 C 1081.921875 296.257812 1081.863281 296.554688 1081.746094 296.839844 C 1081.628906 297.125 1081.460938 297.375 1081.242188 297.59375 C 1081.023438 297.8125 1080.773438 297.976562 1080.488281 298.097656 C 1080.207031 298.214844 1079.910156 298.273438 1079.601562 298.273438 Z M 1056.625 298.273438 L 1045.128906 298.273438 C 1044.824219 298.273438 1044.527344 298.214844 1044.242188 298.097656 C 1043.957031 297.976562 1043.707031 297.8125 1043.488281 297.59375 C 1043.273438 297.375 1043.105469 297.125 1042.988281 296.839844 C 1042.867188 296.554688 1042.808594 296.257812 1042.808594 295.953125 C 1042.808594 295.644531 1042.867188 295.347656 1042.988281 295.0625 C 1043.105469 294.777344 1043.273438 294.527344 1043.488281 294.3125 C 1043.707031 294.09375 1043.957031 293.925781 1044.242188 293.808594 C 1044.527344 293.691406 1044.824219 293.628906 1045.128906 293.628906 L 1056.625 293.628906 C 1056.933594 293.628906 1057.226562 293.691406 1057.511719 293.808594 C 1057.796875 293.925781 1058.046875 294.09375 1058.265625 294.3125 C 1058.484375 294.527344 1058.652344 294.777344 1058.769531 295.0625 C 1058.886719 295.347656 1058.945312 295.644531 1058.945312 295.953125 C 1058.945312 296.257812 1058.886719 296.554688 1058.769531 296.839844 C 1058.652344 297.125 1058.484375 297.375 1058.265625 297.59375 C 1058.046875 297.8125 1057.796875 297.976562 1057.511719 298.097656 C 1057.226562 298.214844 1056.933594 298.273438 1056.625 298.273438 Z M 1056.625 298.273438 " fill-opacity="1" fill-rule="nonzero"/><path fill="#3abef9" d="M 1303.472656 298.273438 L 1297.902344 298.273438 C 1297.59375 298.273438 1297.296875 298.214844 1297.011719 298.097656 C 1296.726562 297.976562 1296.476562 297.8125 1296.257812 297.59375 C 1296.042969 297.375 1295.875 297.125 1295.757812 296.839844 C 1295.640625 296.554688 1295.578125 296.257812 1295.578125 295.953125 C 1295.578125 295.644531 1295.640625 295.347656 1295.757812 295.0625 C 1295.875 294.777344 1296.042969 294.527344 1296.257812 294.3125 C 1296.476562 294.09375 1296.726562 293.925781 1297.011719 293.808594 C 1297.296875 293.691406 1297.59375 293.628906 1297.902344 293.628906 L 1303.472656 293.628906 C 1303.777344 293.628906 1304.074219 293.691406 1304.359375 293.808594 C 1304.644531 293.925781 1304.894531 294.09375 1305.113281 294.3125 C 1305.328125 294.527344 1305.496094 294.777344 1305.617188 295.0625 C 1305.734375 295.347656 1305.792969 295.644531 1305.792969 295.953125 C 1305.792969 296.257812 1305.734375 296.554688 1305.617188 296.839844 C 1305.496094 297.125 1305.328125 297.375 1305.113281 297.59375 C 1304.894531 297.8125 1304.644531 297.976562 1304.359375 298.097656 C 1304.074219 298.214844 1303.777344 298.273438 1303.472656 298.273438 Z M 1303.472656 298.273438 " fill-opacity="1" fill-rule="nonzero"/><path fill="#3abef9" d="M 159.363281 377.566406 C 152.84375 377.566406 146.320312 379.605469 140.613281 383.273438 C 125.9375 393.464844 122.269531 413.84375 132.460938 428.519531 C 138.574219 437.078125 148.359375 442.378906 159.363281 442.378906 C 165.886719 442.378906 172.410156 440.339844 178.117188 436.671875 C 192.789062 426.480469 196.460938 406.101562 186.269531 391.425781 C 180.152344 382.863281 169.964844 377.566406 159.363281 377.566406 Z M 168.742188 423.21875 C 165.886719 425.257812 162.625 426.074219 159.363281 426.074219 C 154.066406 426.074219 149.175781 423.628906 145.914062 419.144531 C 140.613281 411.804688 142.652344 401.617188 149.988281 396.316406 C 152.84375 394.277344 156.105469 393.464844 159.363281 393.464844 C 164.664062 393.464844 169.554688 395.910156 172.816406 400.394531 C 177.707031 408.136719 176.078125 418.328125 168.742188 423.21875 Z M 168.742188 423.21875 " fill-opacity="1" fill-rule="nonzero"/><path fill="#3abef9" d="M 208.28125 444.417969 C 204.613281 446.863281 202.167969 450.53125 201.757812 455.015625 C 201.757812 455.421875 201.757812 455.832031 201.757812 456.238281 L 201.757812 538.578125 C 201.757812 543.0625 205.425781 546.730469 209.910156 546.730469 C 214.394531 546.730469 218.0625 543.0625 218.0625 538.578125 L 218.0625 457.867188 L 238.445312 461.539062 L 238.445312 448.085938 C 238.445312 446.863281 238.445312 446.046875 238.445312 444.824219 L 220.507812 441.5625 C 216.027344 441.15625 211.542969 441.972656 208.28125 444.417969 Z M 208.28125 444.417969 " fill-opacity="1" fill-rule="nonzero"/><path fill="#3abef9" d="M 427.585938 389.792969 C 429.625 385.71875 427.585938 380.828125 423.511719 378.789062 L 294.699219 318.867188 C 294.289062 318.867188 293.882812 318.460938 293.476562 318.460938 C 288.992188 317.234375 284.507812 318.050781 280.429688 320.496094 C 276.355469 322.941406 273.910156 327.019531 273.09375 331.503906 C 273.09375 331.910156 273.09375 332.726562 273.09375 333.132812 L 274.726562 400.800781 C 278.800781 399.578125 282.878906 399.171875 286.953125 399.171875 L 291.03125 399.171875 L 289.398438 334.355469 L 416.988281 393.871094 C 420.65625 395.5 425.546875 393.871094 427.585938 389.792969 Z M 427.585938 389.792969 " fill-opacity="1" fill-rule="nonzero"/><g clip-path="url(#1a33bc324c)"><path fill="#3abef9" d="M 207.464844 566.296875 C 202.167969 566.296875 197.273438 563.851562 194.015625 559.367188 L 94.144531 415.882812 C 88.84375 408.546875 90.882812 398.355469 98.21875 393.054688 L 324.457031 234.894531 C 327.308594 232.855469 330.570312 232.042969 333.832031 232.042969 C 339.128906 232.042969 344.023438 234.488281 347.28125 238.972656 L 447.152344 382.457031 C 450.820312 387.757812 450.820312 393.871094 448.375 399.171875 L 465.496094 399.171875 C 467.535156 390.609375 465.902344 380.828125 460.605469 373.082031 L 360.734375 229.59375 C 354.621094 221.035156 344.835938 215.734375 333.832031 215.734375 C 327.308594 215.734375 320.785156 217.773438 315.082031 221.441406 L 88.84375 380.011719 C 74.171875 390.203125 70.5 410.582031 80.691406 425.257812 L 180.5625 568.746094 C 186.675781 577.304688 196.460938 582.605469 207.464844 582.605469 C 213.988281 582.605469 220.507812 580.566406 226.214844 576.898438 L 238.039062 568.335938 L 238.039062 548.363281 L 216.839844 563.445312 C 213.988281 565.484375 210.726562 566.296875 207.464844 566.296875 Z M 207.464844 566.296875 " fill-opacity="1" fill-rule="nonzero"/></g><g clip-path="url(#db9f695b23)"><path fill="#3abef9" d="M 564.144531 415.476562 L 286.953125 415.476562 C 269.019531 415.476562 254.34375 430.148438 254.34375 448.085938 L 254.34375 623.367188 C 254.34375 641.304688 269.019531 655.976562 286.953125 655.976562 L 564.144531 655.976562 C 582.078125 655.976562 596.753906 641.304688 596.753906 623.367188 L 596.753906 448.085938 C 596.753906 430.148438 582.078125 415.476562 564.144531 415.476562 Z M 580.449219 623.367188 C 580.449219 632.335938 573.109375 639.671875 564.144531 639.671875 L 286.953125 639.671875 C 277.984375 639.671875 270.648438 632.335938 270.648438 623.367188 L 270.648438 448.085938 C 270.648438 439.117188 277.984375 431.78125 286.953125 431.78125 L 564.144531 431.78125 C 573.109375 431.78125 580.449219 439.117188 580.449219 448.085938 Z M 580.449219 623.367188 " fill-opacity="1" fill-rule="nonzero"/></g><path fill="#3abef9" d="M 491.175781 483.550781 C 490.769531 483.140625 490.769531 482.734375 490.363281 482.328125 C 487.507812 478.65625 483.023438 476.621094 478.539062 476.621094 C 474.054688 476.621094 469.574219 478.25 466.3125 481.511719 C 465.902344 481.917969 465.496094 482.328125 465.089844 482.734375 L 399.867188 582.195312 L 359.511719 541.839844 C 353.398438 535.726562 342.800781 535.726562 336.277344 541.839844 C 335.871094 542.25 335.460938 542.65625 335.460938 543.0625 L 288.175781 610.730469 C 285.730469 614.398438 286.546875 619.699219 290.214844 622.144531 C 291.4375 622.960938 293.066406 623.773438 294.699219 623.773438 C 297.144531 623.773438 299.996094 622.550781 301.21875 620.105469 L 348.097656 553.664062 L 395.382812 600.949219 C 397.015625 602.578125 399.460938 603.394531 401.90625 603.394531 C 404.351562 602.984375 406.390625 601.761719 408.019531 599.722656 L 478.132812 492.925781 L 549.058594 615.214844 C 551.507812 619.289062 556.398438 620.511719 560.066406 618.066406 C 564.144531 615.621094 565.367188 610.730469 562.917969 607.0625 Z M 491.175781 483.550781 " fill-opacity="1" fill-rule="nonzero"/><path fill="#3abef9" d="M 327.714844 513.308594 C 345.652344 513.308594 360.328125 498.632812 360.328125 480.695312 C 360.328125 462.761719 345.652344 448.085938 327.714844 448.085938 C 309.78125 448.085938 295.105469 462.761719 295.105469 480.695312 C 295.105469 498.632812 309.78125 513.308594 327.714844 513.308594 Z M 327.714844 464.390625 C 336.683594 464.390625 344.023438 471.726562 344.023438 480.695312 C 344.023438 489.664062 336.683594 497 327.714844 497 C 318.75 497 311.410156 489.664062 311.410156 480.695312 C 311.410156 471.726562 318.75 464.390625 327.714844 464.390625 Z M 327.714844 464.390625 " fill-opacity="1" fill-rule="nonzero"/><g fill="#3abef9" fill-opacity="1"><g transform="translate(737.319353, 617.09532)"><g><path d="M 11 -4.234375 L 11.40625 -4.53125 C 11.90625 -4.820312 12.253906 -4.96875 12.453125 -4.96875 C 12.910156 -4.96875 13.40625 -4.554688 13.9375 -3.734375 C 14.257812 -3.210938 14.421875 -2.796875 14.421875 -2.484375 C 14.421875 -2.179688 14.320312 -1.925781 14.125 -1.71875 C 13.925781 -1.507812 13.691406 -1.320312 13.421875 -1.15625 C 13.160156 -1 12.910156 -0.847656 12.671875 -0.703125 C 12.429688 -0.554688 11.929688 -0.363281 11.171875 -0.125 C 10.421875 0.101562 9.695312 0.21875 9 0.21875 C 8.300781 0.21875 7.59375 0.128906 6.875 -0.046875 C 6.164062 -0.234375 5.429688 -0.546875 4.671875 -0.984375 C 3.910156 -1.421875 3.226562 -1.953125 2.625 -2.578125 C 2.019531 -3.203125 1.519531 -4.003906 1.125 -4.984375 C 0.738281 -5.960938 0.546875 -7.023438 0.546875 -8.171875 C 0.546875 -9.316406 0.738281 -10.359375 1.125 -11.296875 C 1.507812 -12.234375 2 -13.003906 2.59375 -13.609375 C 3.1875 -14.222656 3.867188 -14.738281 4.640625 -15.15625 C 6.085938 -15.945312 7.535156 -16.34375 8.984375 -16.34375 C 9.679688 -16.34375 10.382812 -16.234375 11.09375 -16.015625 C 11.8125 -15.804688 12.351562 -15.59375 12.71875 -15.375 L 13.25 -15.0625 C 13.519531 -14.90625 13.726562 -14.773438 13.875 -14.671875 C 14.257812 -14.359375 14.453125 -14.003906 14.453125 -13.609375 C 14.453125 -13.222656 14.296875 -12.816406 13.984375 -12.390625 C 13.410156 -11.597656 12.894531 -11.203125 12.4375 -11.203125 C 12.175781 -11.203125 11.800781 -11.363281 11.3125 -11.6875 C 10.695312 -12.1875 9.875 -12.4375 8.84375 -12.4375 C 7.882812 -12.4375 6.941406 -12.101562 6.015625 -11.4375 C 5.566406 -11.113281 5.195312 -10.65625 4.90625 -10.0625 C 4.613281 -9.476562 4.46875 -8.8125 4.46875 -8.0625 C 4.46875 -7.320312 4.613281 -6.65625 4.90625 -6.0625 C 5.195312 -5.476562 5.570312 -5.019531 6.03125 -4.6875 C 6.925781 -4.039062 7.863281 -3.71875 8.84375 -3.71875 C 9.289062 -3.71875 9.71875 -3.773438 10.125 -3.890625 C 10.53125 -4.003906 10.820312 -4.117188 11 -4.234375 Z M 11 -4.234375 "/></g></g></g><g fill="#3abef9" fill-opacity="1"><g transform="translate(753.425029, 617.09532)"><g><path d="M 13.28125 -2.734375 C 13.5 -2.203125 13.609375 -1.820312 13.609375 -1.59375 C 13.609375 -1.03125 13.148438 -0.554688 12.234375 -0.171875 C 11.765625 0.0234375 11.382812 0.125 11.09375 0.125 C 10.8125 0.125 10.578125 0.0546875 10.390625 -0.078125 C 10.210938 -0.210938 10.078125 -0.359375 9.984375 -0.515625 C 9.835938 -0.785156 9.265625 -2.113281 8.265625 -4.5 L 7.578125 -4.46875 L 4.796875 -4.46875 L 4.796875 -1.96875 C 4.796875 -1.625 4.785156 -1.367188 4.765625 -1.203125 C 4.742188 -1.035156 4.671875 -0.84375 4.546875 -0.625 C 4.335938 -0.21875 3.765625 -0.015625 2.828125 -0.015625 C 1.796875 -0.015625 1.191406 -0.289062 1.015625 -0.84375 C 0.929688 -1.09375 0.890625 -1.472656 0.890625 -1.984375 L 0.890625 -14.25 C 0.890625 -14.59375 0.898438 -14.847656 0.921875 -15.015625 C 0.941406 -15.179688 1.007812 -15.375 1.125 -15.59375 C 1.332031 -15.988281 1.90625 -16.1875 2.84375 -16.1875 L 7.625 -16.1875 C 8.914062 -16.1875 10.175781 -15.71875 11.40625 -14.78125 C 11.988281 -14.320312 12.472656 -13.703125 12.859375 -12.921875 C 13.242188 -12.140625 13.4375 -11.269531 13.4375 -10.3125 C 13.4375 -8.65625 12.882812 -7.285156 11.78125 -6.203125 C 12.101562 -5.421875 12.601562 -4.265625 13.28125 -2.734375 Z M 4.796875 -8.375 L 7.625 -8.375 C 8.050781 -8.375 8.476562 -8.535156 8.90625 -8.859375 C 9.332031 -9.179688 9.546875 -9.664062 9.546875 -10.3125 C 9.546875 -10.96875 9.332031 -11.457031 8.90625 -11.78125 C 8.476562 -12.113281 8.035156 -12.28125 7.578125 -12.28125 L 4.796875 -12.28125 Z M 4.796875 -8.375 "/></g></g></g><g fill="#3abef9" fill-opacity="1"><g transform="translate(768.470271, 617.09532)"><g><path d="M 4.796875 -3.90625 L 11.59375 -3.90625 C 11.9375 -3.90625 12.191406 -3.894531 12.359375 -3.875 C 12.523438 -3.851562 12.722656 -3.785156 12.953125 -3.671875 C 13.347656 -3.460938 13.546875 -2.882812 13.546875 -1.9375 C 13.546875 -0.90625 13.269531 -0.300781 12.71875 -0.125 C 12.46875 -0.0390625 12.085938 0 11.578125 0 L 2.828125 0 C 1.796875 0 1.191406 -0.28125 1.015625 -0.84375 C 0.929688 -1.070312 0.890625 -1.445312 0.890625 -1.96875 L 0.890625 -14.25 C 0.890625 -15 1.023438 -15.507812 1.296875 -15.78125 C 1.578125 -16.050781 2.109375 -16.1875 2.890625 -16.1875 L 11.59375 -16.1875 C 11.9375 -16.1875 12.191406 -16.175781 12.359375 -16.15625 C 12.523438 -16.132812 12.722656 -16.066406 12.953125 -15.953125 C 13.347656 -15.742188 13.546875 -15.171875 13.546875 -14.234375 C 13.546875 -13.203125 13.269531 -12.597656 12.71875 -12.421875 C 12.46875 -12.328125 12.085938 -12.28125 11.578125 -12.28125 L 4.796875 -12.28125 L 4.796875 -10.046875 L 9.171875 -10.046875 C 9.503906 -10.046875 9.753906 -10.035156 9.921875 -10.015625 C 10.097656 -9.992188 10.296875 -9.925781 10.515625 -9.8125 C 10.910156 -9.601562 11.109375 -9.03125 11.109375 -8.09375 C 11.109375 -7.0625 10.832031 -6.457031 10.28125 -6.28125 C 10.019531 -6.1875 9.632812 -6.140625 9.125 -6.140625 L 4.796875 -6.140625 Z M 4.796875 -3.90625 "/></g></g></g><g fill="#3abef9" fill-opacity="1"><g transform="translate(783.670164, 617.09532)"><g><path d="M 10.234375 -15.046875 L 16.1875 -2.71875 C 16.445312 -2.21875 16.578125 -1.84375 16.578125 -1.59375 C 16.578125 -1.0625 16.144531 -0.582031 15.28125 -0.15625 C 14.78125 0.09375 14.382812 0.21875 14.09375 0.21875 C 13.8125 0.21875 13.578125 0.148438 13.390625 0.015625 C 13.210938 -0.109375 13.082031 -0.242188 13 -0.390625 C 12.914062 -0.546875 12.800781 -0.769531 12.65625 -1.0625 L 11.515625 -3.453125 L 5.390625 -3.453125 L 4.234375 -1.0625 C 4.085938 -0.769531 3.972656 -0.554688 3.890625 -0.421875 C 3.816406 -0.285156 3.6875 -0.144531 3.5 0 C 3.3125 0.132812 3.070312 0.203125 2.78125 0.203125 C 2.5 0.203125 2.109375 0.078125 1.609375 -0.171875 C 0.753906 -0.585938 0.328125 -1.0625 0.328125 -1.59375 C 0.328125 -1.84375 0.453125 -2.21875 0.703125 -2.71875 L 6.671875 -15.0625 C 6.835938 -15.40625 7.082031 -15.675781 7.40625 -15.875 C 7.738281 -16.082031 8.09375 -16.1875 8.46875 -16.1875 C 9.257812 -16.1875 9.847656 -15.804688 10.234375 -15.046875 Z M 8.4375 -9.75 L 6.984375 -6.71875 L 9.921875 -6.71875 Z M 8.4375 -9.75 "/></g></g></g><g fill="#3abef9" fill-opacity="1"><g transform="translate(801.675767, 617.09532)"><g><path d="M 1.9375 -16.21875 L 14.234375 -16.21875 C 14.703125 -16.21875 15.046875 -16.160156 15.265625 -16.046875 C 15.484375 -15.941406 15.628906 -15.769531 15.703125 -15.53125 C 15.773438 -15.289062 15.8125 -14.976562 15.8125 -14.59375 C 15.8125 -14.21875 15.773438 -13.914062 15.703125 -13.6875 C 15.628906 -13.457031 15.503906 -13.300781 15.328125 -13.21875 C 15.066406 -13.082031 14.691406 -13.015625 14.203125 -13.015625 L 9.984375 -13.015625 L 9.984375 -1.90625 C 9.984375 -1.5625 9.972656 -1.304688 9.953125 -1.140625 C 9.929688 -0.984375 9.863281 -0.796875 9.75 -0.578125 C 9.644531 -0.367188 9.453125 -0.21875 9.171875 -0.125 C 8.890625 -0.0390625 8.519531 0 8.0625 0 C 7.601562 0 7.238281 -0.0390625 6.96875 -0.125 C 6.695312 -0.21875 6.503906 -0.367188 6.390625 -0.578125 C 6.285156 -0.796875 6.222656 -0.988281 6.203125 -1.15625 C 6.179688 -1.320312 6.171875 -1.578125 6.171875 -1.921875 L 6.171875 -13.015625 L 1.921875 -13.015625 C 1.453125 -13.015625 1.101562 -13.066406 0.875 -13.171875 C 0.65625 -13.285156 0.507812 -13.457031 0.4375 -13.6875 C 0.363281 -13.925781 0.328125 -14.238281 0.328125 -14.625 C 0.328125 -15.007812 0.363281 -15.316406 0.4375 -15.546875 C 0.507812 -15.773438 0.632812 -15.929688 0.8125 -16.015625 C 1.082031 -16.148438 1.457031 -16.21875 1.9375 -16.21875 Z M 1.9375 -16.21875 "/></g></g></g><g fill="#3abef9" fill-opacity="1"><g transform="translate(818.930239, 617.09532)"><g><path d="M 4.796875 -3.90625 L 11.59375 -3.90625 C 11.9375 -3.90625 12.191406 -3.894531 12.359375 -3.875 C 12.523438 -3.851562 12.722656 -3.785156 12.953125 -3.671875 C 13.347656 -3.460938 13.546875 -2.882812 13.546875 -1.9375 C 13.546875 -0.90625 13.269531 -0.300781 12.71875 -0.125 C 12.46875 -0.0390625 12.085938 0 11.578125 0 L 2.828125 0 C 1.796875 0 1.191406 -0.28125 1.015625 -0.84375 C 0.929688 -1.070312 0.890625 -1.445312 0.890625 -1.96875 L 0.890625 -14.25 C 0.890625 -15 1.023438 -15.507812 1.296875 -15.78125 C 1.578125 -16.050781 2.109375 -16.1875 2.890625 -16.1875 L 11.59375 -16.1875 C 11.9375 -16.1875 12.191406 -16.175781 12.359375 -16.15625 C 12.523438 -16.132812 12.722656 -16.066406 12.953125 -15.953125 C 13.347656 -15.742188 13.546875 -15.171875 13.546875 -14.234375 C 13.546875 -13.203125 13.269531 -12.597656 12.71875 -12.421875 C 12.46875 -12.328125 12.085938 -12.28125 11.578125 -12.28125 L 4.796875 -12.28125 L 4.796875 -10.046875 L 9.171875 -10.046875 C 9.503906 -10.046875 9.753906 -10.035156 9.921875 -10.015625 C 10.097656 -9.992188 10.296875 -9.925781 10.515625 -9.8125 C 10.910156 -9.601562 11.109375 -9.03125 11.109375 -8.09375 C 11.109375 -7.0625 10.832031 -6.457031 10.28125 -6.28125 C 10.019531 -6.1875 9.632812 -6.140625 9.125 -6.140625 L 4.796875 -6.140625 Z M 4.796875 -3.90625 "/></g></g></g><g fill="#3abef9" fill-opacity="1"><g transform="translate(834.130132, 617.09532)"><g><path d="M 2.84375 -16.21875 L 6.9375 -16.1875 C 9.070312 -16.1875 10.945312 -15.414062 12.5625 -13.875 C 14.1875 -12.34375 15 -10.453125 15 -8.203125 C 15 -5.960938 14.207031 -4.035156 12.625 -2.421875 C 11.039062 -0.816406 9.125 -0.015625 6.875 -0.015625 L 2.828125 -0.015625 C 1.929688 -0.015625 1.375 -0.203125 1.15625 -0.578125 C 0.976562 -0.878906 0.890625 -1.347656 0.890625 -1.984375 L 0.890625 -14.265625 C 0.890625 -14.617188 0.898438 -14.875 0.921875 -15.03125 C 0.941406 -15.195312 1.007812 -15.394531 1.125 -15.625 C 1.332031 -16.019531 1.90625 -16.21875 2.84375 -16.21875 Z M 6.9375 -3.9375 C 8 -3.9375 8.957031 -4.328125 9.8125 -5.109375 C 10.664062 -5.898438 11.09375 -6.890625 11.09375 -8.078125 C 11.09375 -9.273438 10.675781 -10.273438 9.84375 -11.078125 C 9.007812 -11.878906 8.035156 -12.28125 6.921875 -12.28125 L 4.796875 -12.28125 L 4.796875 -3.9375 Z M 6.9375 -3.9375 "/></g></g></g><g fill="#3abef9" fill-opacity="1"><g transform="translate(850.788107, 617.09532)"><g/></g></g><g fill="#3abef9" fill-opacity="1"><g transform="translate(857.482508, 617.09532)"><g><path d="M 12.421875 -8.6875 C 13.285156 -7.65625 13.71875 -6.5 13.71875 -5.21875 C 13.6875 -3.738281 13.179688 -2.5 12.203125 -1.5 C 11.222656 -0.507812 10.035156 -0.015625 8.640625 -0.015625 L 2.828125 -0.015625 C 1.796875 -0.015625 1.191406 -0.296875 1.015625 -0.859375 C 0.929688 -1.109375 0.890625 -1.492188 0.890625 -2.015625 L 0.890625 -14.265625 C 0.890625 -14.617188 0.898438 -14.875 0.921875 -15.03125 C 0.941406 -15.195312 1.007812 -15.394531 1.125 -15.625 C 1.332031 -16.019531 1.90625 -16.21875 2.84375 -16.21875 L 8.421875 -16.21875 C 9.773438 -16.21875 10.90625 -15.742188 11.8125 -14.796875 C 12.769531 -13.835938 13.25 -12.691406 13.25 -11.359375 C 13.25 -10.378906 12.972656 -9.488281 12.421875 -8.6875 Z M 9.8125 -5.4375 C 9.8125 -5.789062 9.769531 -6.066406 9.6875 -6.265625 C 9.601562 -6.472656 9.46875 -6.625 9.28125 -6.71875 C 8.988281 -6.832031 8.578125 -6.890625 8.046875 -6.890625 C 7.515625 -6.890625 7.113281 -6.992188 6.84375 -7.203125 C 6.582031 -7.410156 6.453125 -7.832031 6.453125 -8.46875 C 6.453125 -9.113281 6.585938 -9.535156 6.859375 -9.734375 C 7.128906 -9.941406 7.582031 -10.046875 8.21875 -10.046875 C 8.8125 -10.046875 9.164062 -10.203125 9.28125 -10.515625 C 9.320312 -10.679688 9.34375 -10.945312 9.34375 -11.3125 C 9.34375 -11.675781 9.21875 -11.929688 8.96875 -12.078125 C 8.726562 -12.234375 8.367188 -12.3125 7.890625 -12.3125 L 4.796875 -12.3125 L 4.796875 -3.9375 L 8.421875 -3.9375 C 9.347656 -3.9375 9.8125 -4.4375 9.8125 -5.4375 Z M 9.8125 -5.4375 "/></g></g></g><g fill="#3abef9" fill-opacity="1"><g transform="translate(872.859143, 617.09532)"><g><path d="M 13.75 -15.890625 C 14.46875 -15.390625 14.828125 -14.898438 14.828125 -14.421875 C 14.828125 -14.140625 14.65625 -13.75 14.3125 -13.25 L 9.546875 -6.125 L 9.546875 -1.90625 C 9.546875 -1.5625 9.535156 -1.304688 9.515625 -1.140625 C 9.492188 -0.972656 9.421875 -0.773438 9.296875 -0.546875 C 9.179688 -0.328125 8.984375 -0.171875 8.703125 -0.078125 C 8.421875 0.00390625 8.046875 0.046875 7.578125 0.046875 C 7.109375 0.046875 6.734375 0.00390625 6.453125 -0.078125 C 6.171875 -0.171875 5.96875 -0.332031 5.84375 -0.5625 C 5.726562 -0.789062 5.660156 -0.988281 5.640625 -1.15625 C 5.617188 -1.320312 5.609375 -1.582031 5.609375 -1.9375 L 5.609375 -6.125 L 0.84375 -13.25 C 0.5 -13.75 0.328125 -14.140625 0.328125 -14.421875 C 0.328125 -14.898438 0.648438 -15.351562 1.296875 -15.78125 C 1.953125 -16.21875 2.414062 -16.4375 2.6875 -16.4375 C 2.96875 -16.4375 3.191406 -16.378906 3.359375 -16.265625 C 3.609375 -16.097656 3.875 -15.796875 4.15625 -15.359375 L 7.578125 -9.875 L 11 -15.359375 C 11.28125 -15.796875 11.523438 -16.082031 11.734375 -16.21875 C 11.941406 -16.363281 12.179688 -16.4375 12.453125 -16.4375 C 12.722656 -16.4375 13.15625 -16.253906 13.75 -15.890625 Z M 13.75 -15.890625 "/></g></g></g><g fill="#3abef9" fill-opacity="1"><g transform="translate(889.119452, 617.09532)"><g><path d="M 2.703125 -11.15625 C 3.460938 -11.15625 3.984375 -11.007812 4.265625 -10.71875 C 4.554688 -10.425781 4.703125 -9.875 4.703125 -9.0625 C 4.691406 -8.707031 4.675781 -8.441406 4.65625 -8.265625 C 4.632812 -8.097656 4.554688 -7.898438 4.421875 -7.671875 C 4.203125 -7.242188 3.644531 -7.03125 2.75 -7.03125 C 1.851562 -7.03125 1.257812 -7.171875 0.96875 -7.453125 C 0.6875 -7.742188 0.546875 -8.300781 0.546875 -9.125 C 0.546875 -9.976562 0.703125 -10.523438 1.015625 -10.765625 C 1.378906 -11.023438 1.941406 -11.15625 2.703125 -11.15625 Z M 2.703125 -4.109375 C 3.460938 -4.109375 3.984375 -3.960938 4.265625 -3.671875 C 4.554688 -3.390625 4.703125 -2.835938 4.703125 -2.015625 C 4.691406 -1.660156 4.675781 -1.394531 4.65625 -1.21875 C 4.632812 -1.050781 4.554688 -0.851562 4.421875 -0.625 C 4.203125 -0.195312 3.644531 0.015625 2.75 0.015625 C 1.851562 0.015625 1.257812 -0.125 0.96875 -0.40625 C 0.6875 -0.695312 0.546875 -1.253906 0.546875 -2.078125 C 0.546875 -2.929688 0.703125 -3.476562 1.015625 -3.71875 C 1.378906 -3.976562 1.941406 -4.109375 2.703125 -4.109375 Z M 2.703125 -4.109375 "/></g></g></g><g fill="#3abef9" fill-opacity="1"><g transform="translate(895.482468, 617.09532)"><g/></g></g><g fill="#3abef9" fill-opacity="1"><g transform="translate(902.176878, 617.09532)"><g><path d="M 2.84375 -16.21875 L 6.9375 -16.1875 C 9.070312 -16.1875 10.945312 -15.414062 12.5625 -13.875 C 14.1875 -12.34375 15 -10.453125 15 -8.203125 C 15 -5.960938 14.207031 -4.035156 12.625 -2.421875 C 11.039062 -0.816406 9.125 -0.015625 6.875 -0.015625 L 2.828125 -0.015625 C 1.929688 -0.015625 1.375 -0.203125 1.15625 -0.578125 C 0.976562 -0.878906 0.890625 -1.347656 0.890625 -1.984375 L 0.890625 -14.265625 C 0.890625 -14.617188 0.898438 -14.875 0.921875 -15.03125 C 0.941406 -15.195312 1.007812 -15.394531 1.125 -15.625 C 1.332031 -16.019531 1.90625 -16.21875 2.84375 -16.21875 Z M 6.9375 -3.9375 C 8 -3.9375 8.957031 -4.328125 9.8125 -5.109375 C 10.664062 -5.898438 11.09375 -6.890625 11.09375 -8.078125 C 11.09375 -9.273438 10.675781 -10.273438 9.84375 -11.078125 C 9.007812 -11.878906 8.035156 -12.28125 6.921875 -12.28125 L 4.796875 -12.28125 L 4.796875 -3.9375 Z M 6.9375 -3.9375 "/></g></g></g><g fill="#3abef9" fill-opacity="1"><g transform="translate(918.834861, 617.09532)"><g><path d="M 10.234375 -15.046875 L 16.1875 -2.71875 C 16.445312 -2.21875 16.578125 -1.84375 16.578125 -1.59375 C 16.578125 -1.0625 16.144531 -0.582031 15.28125 -0.15625 C 14.78125 0.09375 14.382812 0.21875 14.09375 0.21875 C 13.8125 0.21875 13.578125 0.148438 13.390625 0.015625 C 13.210938 -0.109375 13.082031 -0.242188 13 -0.390625 C 12.914062 -0.546875 12.800781 -0.769531 12.65625 -1.0625 L 11.515625 -3.453125 L 5.390625 -3.453125 L 4.234375 -1.0625 C 4.085938 -0.769531 3.972656 -0.554688 3.890625 -0.421875 C 3.816406 -0.285156 3.6875 -0.144531 3.5 0 C 3.3125 0.132812 3.070312 0.203125 2.78125 0.203125 C 2.5 0.203125 2.109375 0.078125 1.609375 -0.171875 C 0.753906 -0.585938 0.328125 -1.0625 0.328125 -1.59375 C 0.328125 -1.84375 0.453125 -2.21875 0.703125 -2.71875 L 6.671875 -15.0625 C 6.835938 -15.40625 7.082031 -15.675781 7.40625 -15.875 C 7.738281 -16.082031 8.09375 -16.1875 8.46875 -16.1875 C 9.257812 -16.1875 9.847656 -15.804688 10.234375 -15.046875 Z M 8.4375 -9.75 L 6.984375 -6.71875 L 9.921875 -6.71875 Z M 8.4375 -9.75 "/></g></g></g><g fill="#3abef9" fill-opacity="1"><g transform="translate(936.840473, 617.09532)"><g><path d="M 15.671875 -15.953125 C 16.535156 -15.523438 16.96875 -15.050781 16.96875 -14.53125 C 16.96875 -14.300781 16.859375 -13.953125 16.640625 -13.484375 L 10.53125 -1.109375 C 10.375 -0.785156 10.128906 -0.519531 9.796875 -0.3125 C 9.460938 -0.113281 9.117188 -0.015625 8.765625 -0.015625 L 8.546875 -0.015625 C 8.179688 -0.015625 7.832031 -0.113281 7.5 -0.3125 C 7.164062 -0.519531 6.921875 -0.785156 6.765625 -1.109375 L 0.65625 -13.484375 C 0.4375 -13.953125 0.328125 -14.300781 0.328125 -14.53125 C 0.328125 -15.050781 0.765625 -15.523438 1.640625 -15.953125 C 2.117188 -16.203125 2.488281 -16.328125 2.75 -16.328125 C 3.007812 -16.328125 3.203125 -16.296875 3.328125 -16.234375 C 3.460938 -16.179688 3.59375 -16.078125 3.71875 -15.921875 C 3.84375 -15.753906 3.957031 -15.5625 4.0625 -15.34375 C 4.175781 -15.132812 4.460938 -14.523438 4.921875 -13.515625 C 5.378906 -12.503906 5.867188 -11.429688 6.390625 -10.296875 C 6.921875 -9.160156 7.414062 -8.085938 7.875 -7.078125 C 8.34375 -6.066406 8.601562 -5.503906 8.65625 -5.390625 L 13.078125 -15.0625 C 13.191406 -15.34375 13.296875 -15.566406 13.390625 -15.734375 C 13.648438 -16.128906 13.972656 -16.328125 14.359375 -16.328125 C 14.742188 -16.328125 15.179688 -16.203125 15.671875 -15.953125 Z M 15.671875 -15.953125 "/></g></g></g><g fill="#3abef9" fill-opacity="1"><g transform="translate(955.243715, 617.09532)"><g><path d="M 4.796875 -3.90625 L 11.59375 -3.90625 C 11.9375 -3.90625 12.191406 -3.894531 12.359375 -3.875 C 12.523438 -3.851562 12.722656 -3.785156 12.953125 -3.671875 C 13.347656 -3.460938 13.546875 -2.882812 13.546875 -1.9375 C 13.546875 -0.90625 13.269531 -0.300781 12.71875 -0.125 C 12.46875 -0.0390625 12.085938 0 11.578125 0 L 2.828125 0 C 1.796875 0 1.191406 -0.28125 1.015625 -0.84375 C 0.929688 -1.070312 0.890625 -1.445312 0.890625 -1.96875 L 0.890625 -14.25 C 0.890625 -15 1.023438 -15.507812 1.296875 -15.78125 C 1.578125 -16.050781 2.109375 -16.1875 2.890625 -16.1875 L 11.59375 -16.1875 C 11.9375 -16.1875 12.191406 -16.175781 12.359375 -16.15625 C 12.523438 -16.132812 12.722656 -16.066406 12.953125 -15.953125 C 13.347656 -15.742188 13.546875 -15.171875 13.546875 -14.234375 C 13.546875 -13.203125 13.269531 -12.597656 12.71875 -12.421875 C 12.46875 -12.328125 12.085938 -12.28125 11.578125 -12.28125 L 4.796875 -12.28125 L 4.796875 -10.046875 L 9.171875 -10.046875 C 9.503906 -10.046875 9.753906 -10.035156 9.921875 -10.015625 C 10.097656 -9.992188 10.296875 -9.925781 10.515625 -9.8125 C 10.910156 -9.601562 11.109375 -9.03125 11.109375 -8.09375 C 11.109375 -7.0625 10.832031 -6.457031 10.28125 -6.28125 C 10.019531 -6.1875 9.632812 -6.140625 9.125 -6.140625 L 4.796875 -6.140625 Z M 4.796875 -3.90625 "/></g></g></g><g fill="#3abef9" fill-opacity="1"><g transform="translate(970.443617, 617.09532)"><g><path d="M 11.34375 -15.515625 C 11.488281 -15.773438 11.695312 -15.945312 11.96875 -16.03125 C 12.25 -16.125 12.597656 -16.171875 13.015625 -16.171875 C 13.441406 -16.171875 13.78125 -16.132812 14.03125 -16.0625 C 14.289062 -15.988281 14.484375 -15.898438 14.609375 -15.796875 C 14.734375 -15.691406 14.828125 -15.535156 14.890625 -15.328125 C 14.984375 -15.097656 15.03125 -14.722656 15.03125 -14.203125 L 15.03125 -1.9375 C 15.03125 -1.582031 15.015625 -1.320312 14.984375 -1.15625 C 14.960938 -1 14.894531 -0.8125 14.78125 -0.59375 C 14.570312 -0.195312 14 0 13.0625 0 C 12.488281 0 12.085938 -0.0390625 11.859375 -0.125 C 11.640625 -0.21875 11.457031 -0.359375 11.3125 -0.546875 C 8 -4.972656 5.816406 -7.863281 4.765625 -9.21875 L 4.765625 -1.9375 C 4.765625 -1.582031 4.753906 -1.320312 4.734375 -1.15625 C 4.710938 -1 4.644531 -0.8125 4.53125 -0.59375 C 4.320312 -0.195312 3.75 0 2.8125 0 C 1.894531 0 1.332031 -0.195312 1.125 -0.59375 C 1.007812 -0.8125 0.941406 -1.007812 0.921875 -1.1875 C 0.898438 -1.363281 0.890625 -1.625 0.890625 -1.96875 L 0.890625 -14.296875 C 0.890625 -14.859375 0.957031 -15.265625 1.09375 -15.515625 C 1.226562 -15.773438 1.4375 -15.945312 1.71875 -16.03125 C 2 -16.125 2.359375 -16.171875 2.796875 -16.171875 C 3.242188 -16.171875 3.59375 -16.128906 3.84375 -16.046875 C 4.101562 -15.960938 4.285156 -15.875 4.390625 -15.78125 C 4.453125 -15.726562 4.625 -15.535156 4.90625 -15.203125 C 8.007812 -10.972656 10.085938 -8.179688 11.140625 -6.828125 L 11.140625 -14.296875 C 11.140625 -14.859375 11.207031 -15.265625 11.34375 -15.515625 Z M 11.34375 -15.515625 "/></g></g></g><g fill="#3abef9" fill-opacity="1"><g transform="translate(987.455084, 617.09532)"><g><path d="M 10.234375 -15.046875 L 16.1875 -2.71875 C 16.445312 -2.21875 16.578125 -1.84375 16.578125 -1.59375 C 16.578125 -1.0625 16.144531 -0.582031 15.28125 -0.15625 C 14.78125 0.09375 14.382812 0.21875 14.09375 0.21875 C 13.8125 0.21875 13.578125 0.148438 13.390625 0.015625 C 13.210938 -0.109375 13.082031 -0.242188 13 -0.390625 C 12.914062 -0.546875 12.800781 -0.769531 12.65625 -1.0625 L 11.515625 -3.453125 L 5.390625 -3.453125 L 4.234375 -1.0625 C 4.085938 -0.769531 3.972656 -0.554688 3.890625 -0.421875 C 3.816406 -0.285156 3.6875 -0.144531 3.5 0 C 3.3125 0.132812 3.070312 0.203125 2.78125 0.203125 C 2.5 0.203125 2.109375 0.078125 1.609375 -0.171875 C 0.753906 -0.585938 0.328125 -1.0625 0.328125 -1.59375 C 0.328125 -1.84375 0.453125 -2.21875 0.703125 -2.71875 L 6.671875 -15.0625 C 6.835938 -15.40625 7.082031 -15.675781 7.40625 -15.875 C 7.738281 -16.082031 8.09375 -16.1875 8.46875 -16.1875 C 9.257812 -16.1875 9.847656 -15.804688 10.234375 -15.046875 Z M 8.4375 -9.75 L 6.984375 -6.71875 L 9.921875 -6.71875 Z M 8.4375 -9.75 "/></g></g></g><g fill="#3abef9" fill-opacity="1"><g transform="translate(1005.460695, 617.09532)"><g><path d="M 13.28125 -2.734375 C 13.5 -2.203125 13.609375 -1.820312 13.609375 -1.59375 C 13.609375 -1.03125 13.148438 -0.554688 12.234375 -0.171875 C 11.765625 0.0234375 11.382812 0.125 11.09375 0.125 C 10.8125 0.125 10.578125 0.0546875 10.390625 -0.078125 C 10.210938 -0.210938 10.078125 -0.359375 9.984375 -0.515625 C 9.835938 -0.785156 9.265625 -2.113281 8.265625 -4.5 L 7.578125 -4.46875 L 4.796875 -4.46875 L 4.796875 -1.96875 C 4.796875 -1.625 4.785156 -1.367188 4.765625 -1.203125 C 4.742188 -1.035156 4.671875 -0.84375 4.546875 -0.625 C 4.335938 -0.21875 3.765625 -0.015625 2.828125 -0.015625 C 1.796875 -0.015625 1.191406 -0.289062 1.015625 -0.84375 C 0.929688 -1.09375 0.890625 -1.472656 0.890625 -1.984375 L 0.890625 -14.25 C 0.890625 -14.59375 0.898438 -14.847656 0.921875 -15.015625 C 0.941406 -15.179688 1.007812 -15.375 1.125 -15.59375 C 1.332031 -15.988281 1.90625 -16.1875 2.84375 -16.1875 L 7.625 -16.1875 C 8.914062 -16.1875 10.175781 -15.71875 11.40625 -14.78125 C 11.988281 -14.320312 12.472656 -13.703125 12.859375 -12.921875 C 13.242188 -12.140625 13.4375 -11.269531 13.4375 -10.3125 C 13.4375 -8.65625 12.882812 -7.285156 11.78125 -6.203125 C 12.101562 -5.421875 12.601562 -4.265625 13.28125 -2.734375 Z M 4.796875 -8.375 L 7.625 -8.375 C 8.050781 -8.375 8.476562 -8.535156 8.90625 -8.859375 C 9.332031 -9.179688 9.546875 -9.664062 9.546875 -10.3125 C 9.546875 -10.96875 9.332031 -11.457031 8.90625 -11.78125 C 8.476562 -12.113281 8.035156 -12.28125 7.578125 -12.28125 L 4.796875 -12.28125 Z M 4.796875 -8.375 "/></g></g></g><g fill="#3abef9" fill-opacity="1"><g transform="translate(1020.505929, 617.09532)"><g><path d="M 11 -4.234375 L 11.40625 -4.53125 C 11.90625 -4.820312 12.253906 -4.96875 12.453125 -4.96875 C 12.910156 -4.96875 13.40625 -4.554688 13.9375 -3.734375 C 14.257812 -3.210938 14.421875 -2.796875 14.421875 -2.484375 C 14.421875 -2.179688 14.320312 -1.925781 14.125 -1.71875 C 13.925781 -1.507812 13.691406 -1.320312 13.421875 -1.15625 C 13.160156 -1 12.910156 -0.847656 12.671875 -0.703125 C 12.429688 -0.554688 11.929688 -0.363281 11.171875 -0.125 C 10.421875 0.101562 9.695312 0.21875 9 0.21875 C 8.300781 0.21875 7.59375 0.128906 6.875 -0.046875 C 6.164062 -0.234375 5.429688 -0.546875 4.671875 -0.984375 C 3.910156 -1.421875 3.226562 -1.953125 2.625 -2.578125 C 2.019531 -3.203125 1.519531 -4.003906 1.125 -4.984375 C 0.738281 -5.960938 0.546875 -7.023438 0.546875 -8.171875 C 0.546875 -9.316406 0.738281 -10.359375 1.125 -11.296875 C 1.507812 -12.234375 2 -13.003906 2.59375 -13.609375 C 3.1875 -14.222656 3.867188 -14.738281 4.640625 -15.15625 C 6.085938 -15.945312 7.535156 -16.34375 8.984375 -16.34375 C 9.679688 -16.34375 10.382812 -16.234375 11.09375 -16.015625 C 11.8125 -15.804688 12.351562 -15.59375 12.71875 -15.375 L 13.25 -15.0625 C 13.519531 -14.90625 13.726562 -14.773438 13.875 -14.671875 C 14.257812 -14.359375 14.453125 -14.003906 14.453125 -13.609375 C 14.453125 -13.222656 14.296875 -12.816406 13.984375 -12.390625 C 13.410156 -11.597656 12.894531 -11.203125 12.4375 -11.203125 C 12.175781 -11.203125 11.800781 -11.363281 11.3125 -11.6875 C 10.695312 -12.1875 9.875 -12.4375 8.84375 -12.4375 C 7.882812 -12.4375 6.941406 -12.101562 6.015625 -11.4375 C 5.566406 -11.113281 5.195312 -10.65625 4.90625 -10.0625 C 4.613281 -9.476562 4.46875 -8.8125 4.46875 -8.0625 C 4.46875 -7.320312 4.613281 -6.65625 4.90625 -6.0625 C 5.195312 -5.476562 5.570312 -5.019531 6.03125 -4.6875 C 6.925781 -4.039062 7.863281 -3.71875 8.84375 -3.71875 C 9.289062 -3.71875 9.71875 -3.773438 10.125 -3.890625 C 10.53125 -4.003906 10.820312 -4.117188 11 -4.234375 Z M 11 -4.234375 "/></g></g></g><g fill="#3abef9" fill-opacity="1"><g transform="translate(1036.611613, 617.09532)"><g><path d="M 10.890625 -15.59375 C 11.003906 -15.8125 11.203125 -15.960938 11.484375 -16.046875 C 11.765625 -16.140625 12.117188 -16.1875 12.546875 -16.1875 C 12.972656 -16.1875 13.3125 -16.148438 13.5625 -16.078125 C 13.8125 -16.003906 14.003906 -15.914062 14.140625 -15.8125 C 14.273438 -15.71875 14.378906 -15.570312 14.453125 -15.375 C 14.523438 -15.125 14.5625 -14.742188 14.5625 -14.234375 L 14.5625 -1.96875 C 14.5625 -1.625 14.550781 -1.367188 14.53125 -1.203125 C 14.507812 -1.035156 14.4375 -0.84375 14.3125 -0.625 C 14.101562 -0.21875 13.53125 -0.015625 12.59375 -0.015625 C 11.5625 -0.015625 10.957031 -0.289062 10.78125 -0.84375 C 10.695312 -1.09375 10.65625 -1.472656 10.65625 -1.984375 L 10.65625 -6.46875 L 4.796875 -6.46875 L 4.796875 -1.96875 C 4.796875 -1.625 4.785156 -1.367188 4.765625 -1.203125 C 4.742188 -1.035156 4.671875 -0.84375 4.546875 -0.625 C 4.335938 -0.21875 3.765625 -0.015625 2.828125 -0.015625 C 1.796875 -0.015625 1.191406 -0.289062 1.015625 -0.84375 C 0.929688 -1.09375 0.890625 -1.472656 0.890625 -1.984375 L 0.890625 -14.25 C 0.890625 -14.59375 0.898438 -14.847656 0.921875 -15.015625 C 0.941406 -15.179688 1.007812 -15.375 1.125 -15.59375 C 1.332031 -15.988281 1.90625 -16.1875 2.84375 -16.1875 C 3.875 -16.1875 4.488281 -15.914062 4.6875 -15.375 C 4.757812 -15.125 4.796875 -14.742188 4.796875 -14.234375 L 4.796875 -9.71875 L 10.65625 -9.71875 L 10.65625 -14.25 C 10.65625 -14.59375 10.664062 -14.847656 10.6875 -15.015625 C 10.707031 -15.179688 10.773438 -15.375 10.890625 -15.59375 Z M 10.890625 -15.59375 "/></g></g></g><g fill="#3abef9" fill-opacity="1"><g transform="translate(1053.159143, 617.09532)"><g><path d="M 0.890625 -14.25 C 0.890625 -14.59375 0.898438 -14.847656 0.921875 -15.015625 C 0.941406 -15.179688 1.007812 -15.375 1.125 -15.59375 C 1.332031 -15.988281 1.90625 -16.1875 2.84375 -16.1875 C 3.875 -16.1875 4.488281 -15.914062 4.6875 -15.375 C 4.757812 -15.125 4.796875 -14.742188 4.796875 -14.234375 L 4.796875 -1.9375 C 4.796875 -1.582031 4.785156 -1.320312 4.765625 -1.15625 C 4.742188 -1 4.671875 -0.8125 4.546875 -0.59375 C 4.335938 -0.195312 3.765625 0 2.828125 0 C 1.796875 0 1.191406 -0.28125 1.015625 -0.84375 C 0.929688 -1.070312 0.890625 -1.445312 0.890625 -1.96875 Z M 0.890625 -14.25 "/></g></g></g><g fill="#3abef9" fill-opacity="1"><g transform="translate(1059.941915, 617.09532)"><g><path d="M 15.671875 -15.953125 C 16.535156 -15.523438 16.96875 -15.050781 16.96875 -14.53125 C 16.96875 -14.300781 16.859375 -13.953125 16.640625 -13.484375 L 10.53125 -1.109375 C 10.375 -0.785156 10.128906 -0.519531 9.796875 -0.3125 C 9.460938 -0.113281 9.117188 -0.015625 8.765625 -0.015625 L 8.546875 -0.015625 C 8.179688 -0.015625 7.832031 -0.113281 7.5 -0.3125 C 7.164062 -0.519531 6.921875 -0.785156 6.765625 -1.109375 L 0.65625 -13.484375 C 0.4375 -13.953125 0.328125 -14.300781 0.328125 -14.53125 C 0.328125 -15.050781 0.765625 -15.523438 1.640625 -15.953125 C 2.117188 -16.203125 2.488281 -16.328125 2.75 -16.328125 C 3.007812 -16.328125 3.203125 -16.296875 3.328125 -16.234375 C 3.460938 -16.179688 3.59375 -16.078125 3.71875 -15.921875 C 3.84375 -15.753906 3.957031 -15.5625 4.0625 -15.34375 C 4.175781 -15.132812 4.460938 -14.523438 4.921875 -13.515625 C 5.378906 -12.503906 5.867188 -11.429688 6.390625 -10.296875 C 6.921875 -9.160156 7.414062 -8.085938 7.875 -7.078125 C 8.34375 -6.066406 8.601562 -5.503906 8.65625 -5.390625 L 13.078125 -15.0625 C 13.191406 -15.34375 13.296875 -15.566406 13.390625 -15.734375 C 13.648438 -16.128906 13.972656 -16.328125 14.359375 -16.328125 C 14.742188 -16.328125 15.179688 -16.203125 15.671875 -15.953125 Z M 15.671875 -15.953125 "/></g></g></g><g fill="#3abef9" fill-opacity="1"><g transform="translate(1078.345157, 617.09532)"><g><path d="M 4.796875 -3.90625 L 11.59375 -3.90625 C 11.9375 -3.90625 12.191406 -3.894531 12.359375 -3.875 C 12.523438 -3.851562 12.722656 -3.785156 12.953125 -3.671875 C 13.347656 -3.460938 13.546875 -2.882812 13.546875 -1.9375 C 13.546875 -0.90625 13.269531 -0.300781 12.71875 -0.125 C 12.46875 -0.0390625 12.085938 0 11.578125 0 L 2.828125 0 C 1.796875 0 1.191406 -0.28125 1.015625 -0.84375 C 0.929688 -1.070312 0.890625 -1.445312 0.890625 -1.96875 L 0.890625 -14.25 C 0.890625 -15 1.023438 -15.507812 1.296875 -15.78125 C 1.578125 -16.050781 2.109375 -16.1875 2.890625 -16.1875 L 11.59375 -16.1875 C 11.9375 -16.1875 12.191406 -16.175781 12.359375 -16.15625 C 12.523438 -16.132812 12.722656 -16.066406 12.953125 -15.953125 C 13.347656 -15.742188 13.546875 -15.171875 13.546875 -14.234375 C 13.546875 -13.203125 13.269531 -12.597656 12.71875 -12.421875 C 12.46875 -12.328125 12.085938 -12.28125 11.578125 -12.28125 L 4.796875 -12.28125 L 4.796875 -10.046875 L 9.171875 -10.046875 C 9.503906 -10.046875 9.753906 -10.035156 9.921875 -10.015625 C 10.097656 -9.992188 10.296875 -9.925781 10.515625 -9.8125 C 10.910156 -9.601562 11.109375 -9.03125 11.109375 -8.09375 C 11.109375 -7.0625 10.832031 -6.457031 10.28125 -6.28125 C 10.019531 -6.1875 9.632812 -6.140625 9.125 -6.140625 L 4.796875 -6.140625 Z M 4.796875 -3.90625 "/></g></g></g><g fill="#3abef9" fill-opacity="1"><g transform="translate(1093.545059, 617.09532)"><g><path d="M 1.125 -2.28125 C 0.738281 -2.75 0.546875 -3.171875 0.546875 -3.546875 C 0.546875 -3.921875 0.863281 -4.414062 1.5 -5.03125 C 1.875 -5.382812 2.265625 -5.5625 2.671875 -5.5625 C 3.085938 -5.5625 3.660156 -5.195312 4.390625 -4.46875 C 4.597656 -4.21875 4.894531 -3.976562 5.28125 -3.75 C 5.664062 -3.519531 6.019531 -3.40625 6.34375 -3.40625 C 7.707031 -3.40625 8.390625 -3.960938 8.390625 -5.078125 C 8.390625 -5.421875 8.203125 -5.707031 7.828125 -5.9375 C 7.453125 -6.164062 6.984375 -6.328125 6.421875 -6.421875 C 5.867188 -6.523438 5.265625 -6.691406 4.609375 -6.921875 C 3.960938 -7.148438 3.359375 -7.421875 2.796875 -7.734375 C 2.242188 -8.046875 1.78125 -8.535156 1.40625 -9.203125 C 1.03125 -9.867188 0.84375 -10.675781 0.84375 -11.625 C 0.84375 -12.914062 1.320312 -14.039062 2.28125 -15 C 3.25 -15.96875 4.566406 -16.453125 6.234375 -16.453125 C 7.117188 -16.453125 7.925781 -16.335938 8.65625 -16.109375 C 9.382812 -15.890625 9.882812 -15.660156 10.15625 -15.421875 L 10.71875 -15 C 11.175781 -14.570312 11.40625 -14.210938 11.40625 -13.921875 C 11.40625 -13.628906 11.226562 -13.222656 10.875 -12.703125 C 10.375 -11.960938 9.859375 -11.59375 9.328125 -11.59375 C 9.015625 -11.59375 8.628906 -11.742188 8.171875 -12.046875 C 8.128906 -12.066406 8.046875 -12.132812 7.921875 -12.25 C 7.796875 -12.375 7.679688 -12.472656 7.578125 -12.546875 C 7.265625 -12.742188 6.867188 -12.84375 6.390625 -12.84375 C 5.910156 -12.84375 5.515625 -12.726562 5.203125 -12.5 C 4.890625 -12.269531 4.734375 -11.953125 4.734375 -11.546875 C 4.734375 -11.140625 4.921875 -10.8125 5.296875 -10.5625 C 5.671875 -10.3125 6.132812 -10.140625 6.6875 -10.046875 C 7.25 -9.960938 7.859375 -9.828125 8.515625 -9.640625 C 9.179688 -9.460938 9.796875 -9.238281 10.359375 -8.96875 C 10.921875 -8.707031 11.390625 -8.25 11.765625 -7.59375 C 12.140625 -6.9375 12.328125 -6.128906 12.328125 -5.171875 C 12.328125 -4.210938 12.132812 -3.367188 11.75 -2.640625 C 11.363281 -1.910156 10.863281 -1.347656 10.25 -0.953125 C 9.0625 -0.171875 7.785156 0.21875 6.421875 0.21875 C 5.734375 0.21875 5.078125 0.132812 4.453125 -0.03125 C 3.835938 -0.195312 3.335938 -0.40625 2.953125 -0.65625 C 2.179688 -1.132812 1.640625 -1.59375 1.328125 -2.03125 Z M 1.125 -2.28125 "/></g></g></g></svg>